<mxfile host="65bd71144e">
    <diagram id="a1dl8UaGJ60cdGCMjrCt" name="Page-1">
        <mxGraphModel dx="2236" dy="720" grid="1" gridSize="10" guides="1" tooltips="1" connect="1" arrows="1" fold="1" page="1" pageScale="1" pageWidth="850" pageHeight="1100" math="0" shadow="0">
            <root>
                <mxCell id="0"/>
                <mxCell id="1" parent="0"/>
                <mxCell id="227" value="" style="group" vertex="1" connectable="0" parent="1">
                    <mxGeometry x="220" y="230" width="525" height="196" as="geometry"/>
                </mxCell>
                <mxCell id="146" value="" style="rounded=0;whiteSpace=wrap;html=1;glass=0;shadow=0;fillColor=default;strokeColor=#F78E04;container=0;strokeWidth=3;" vertex="1" parent="227">
                    <mxGeometry width="525" height="196" as="geometry"/>
                </mxCell>
                <mxCell id="147" value="" style="sketch=0;points=[[0,0,0],[0.25,0,0],[0.5,0,0],[0.75,0,0],[1,0,0],[0,1,0],[0.25,1,0],[0.5,1,0],[0.75,1,0],[1,1,0],[0,0.25,0],[0,0.5,0],[0,0.75,0],[1,0.25,0],[1,0.5,0],[1,0.75,0]];outlineConnect=0;fontColor=#232F3E;gradientColor=#F78E04;gradientDirection=north;fillColor=#D05C17;strokeColor=#ffffff;dashed=0;verticalLabelPosition=bottom;verticalAlign=top;align=center;html=1;fontSize=12;fontStyle=0;aspect=fixed;shape=mxgraph.aws4.resourceIcon;resIcon=mxgraph.aws4.ecs;container=0;" vertex="1" parent="227">
                    <mxGeometry x="491.62845423209615" width="33.37" height="33.37" as="geometry"/>
                </mxCell>
                <mxCell id="148" value="Container ECS" style="text;html=1;strokeColor=none;fillColor=none;align=center;verticalAlign=middle;whiteSpace=wrap;rounded=0;fontSize=9;container=0;" vertex="1" parent="227">
                    <mxGeometry x="435.8308843524163" y="6.680000000000064" width="60.35646804449033" height="20" as="geometry"/>
                </mxCell>
                <mxCell id="149" value="" style="group" vertex="1" connectable="0" parent="227">
                    <mxGeometry x="407.4995617196174" y="71" width="94.40598398815666" height="69" as="geometry"/>
                </mxCell>
                <mxCell id="150" value="" style="sketch=0;points=[[0,0,0],[0.25,0,0],[0.5,0,0],[0.75,0,0],[1,0,0],[0,1,0],[0.25,1,0],[0.5,1,0],[0.75,1,0],[1,1,0],[0,0.25,0],[0,0.5,0],[0,0.75,0],[1,0.25,0],[1,0.5,0],[1,0.75,0]];outlineConnect=0;fontColor=#232F3E;gradientColor=#4D72F3;gradientDirection=north;fillColor=#3334B9;strokeColor=#ffffff;dashed=0;verticalLabelPosition=bottom;verticalAlign=top;align=center;html=1;fontSize=12;fontStyle=0;aspect=fixed;shape=mxgraph.aws4.resourceIcon;resIcon=mxgraph.aws4.command_line_interface;container=0;" vertex="1" parent="149">
                    <mxGeometry x="43.93136109416822" width="49" height="49" as="geometry"/>
                </mxCell>
                <mxCell id="161" value="AWS CLI" style="text;html=1;strokeColor=none;fillColor=none;align=center;verticalAlign=middle;whiteSpace=wrap;rounded=0;fontSize=9;container=0;" vertex="1" parent="227">
                    <mxGeometry x="438.97956171961744" y="120" width="70" height="20" as="geometry"/>
                </mxCell>
                <mxCell id="162" value="" style="html=1;entryX=0;entryY=0.5;entryDx=0;entryDy=0;entryPerimeter=0;endArrow=block;endFill=1;exitX=1;exitY=0;exitDx=0;exitDy=0;" edge="1" parent="227" source="192" target="150">
                    <mxGeometry relative="1" as="geometry">
                        <mxPoint x="424" y="96" as="sourcePoint"/>
                    </mxGeometry>
                </mxCell>
                <mxCell id="151" value="" style="group" vertex="1" connectable="0" parent="227">
                    <mxGeometry x="71.4399918187662" y="22.970000000000027" width="88.82482420086875" height="73" as="geometry"/>
                </mxCell>
                <mxCell id="152" value="" style="shape=image;verticalLabelPosition=bottom;labelBackgroundColor=default;verticalAlign=top;aspect=fixed;imageAspect=0;image=data:image/svg+xml,PHN2ZyB4bWxucz0iaHR0cDovL3d3dy53My5vcmcvMjAwMC9zdmciIGZpbGw9ImN1cnJlbnRDb2xvciIgY2xhc3M9ImJpIGJpLWZpbGUtZWFybWFyay1iaW5hcnkiIHZpZXdCb3g9IjAgMCAxNiAxNiIgaGVpZ2h0PSIxZW0iIHdpZHRoPSIxZW0iPgogIDxwYXRoIGQ9Ik00IDBoNS41djFINGExIDEgMCAwIDAtMSAxdjEyYTEgMSAwIDAgMCAxIDFoOGExIDEgMCAwIDAgMS0xVjQuNWgxVjE0YTIgMiAwIDAgMS0yIDJINGEyIDIgMCAwIDEtMi0yVjJhMiAyIDAgMCAxIDItMnoiLz4KICA8cGF0aCBkPSJNOS41IDNWMEwxNCA0LjVoLTNBMS41IDEuNSAwIDAgMSA5LjUgM3pNNS41MjYgMTQuMDljLjk3NiAwIDEuNTI0LS43OSAxLjUyNC0yLjIwNSAwLTEuNDEyLS41NDgtMi4yMDMtMS41MjQtMi4yMDMtLjk3OCAwLTEuNTI2Ljc5LTEuNTI2IDIuMjAzIDAgMS40MTUuNTQ4IDIuMjA2IDEuNTI2IDIuMjA2em0tLjgzMi0yLjIwNWMwLTEuMDUuMjktMS42MTIuODMyLTEuNjEyLjM1OCAwIC42MDcuMjQ3LjczMy43MjFMNC43IDEyLjEzN2E2Ljc0OSA2Ljc0OSAwIDAgMS0uMDA2LS4yNTJ6bS44MzIgMS42MTRjLS4zNiAwLS42MDYtLjI0Ni0uNzMyLS43MThsMS41NTYtMS4xNDVjLjAwMy4wNzkuMDA1LjE2NC4wMDUuMjQ5IDAgMS4wNTItLjI5IDEuNjE0LS44MjkgMS42MTR6bTUuMzI5LjUwMXYtLjU5NUg5LjczVjkuNzcyaC0uNjlsLTEuMTkuNzg2di42ODhsMS4xMzYtLjc0N2guMDV2Mi45MDZoLTEuMThWMTRoM3oiLz4KPC9zdmc+;container=0;" vertex="1" parent="151">
                    <mxGeometry x="26.4" width="50" height="50" as="geometry"/>
                </mxCell>
                <mxCell id="153" value="EBCDIC (binário)" style="text;html=1;strokeColor=none;fillColor=none;align=center;verticalAlign=middle;whiteSpace=wrap;rounded=0;fontSize=9;container=0;" vertex="1" parent="151">
                    <mxGeometry x="21.400000000000006" y="52.31999999999999" width="60" height="20" as="geometry"/>
                </mxCell>
                <mxCell id="154" value="" style="group" vertex="1" connectable="0" parent="227">
                    <mxGeometry x="78.84323567797105" y="120.28999999999996" width="74.0206868340573" height="67.75" as="geometry"/>
                </mxCell>
                <mxCell id="155" value="" style="shape=image;verticalLabelPosition=bottom;labelBackgroundColor=default;verticalAlign=top;aspect=fixed;imageAspect=0;image=data:image/svg+xml,PHN2ZyB4bWxucz0iaHR0cDovL3d3dy53My5vcmcvMjAwMC9zdmciIGZpbGw9ImN1cnJlbnRDb2xvciIgY2xhc3M9ImJpIGJpLWZpbGUtZWFybWFyay10ZXh0IiB2aWV3Qm94PSIwIDAgMTYgMTYiIGhlaWdodD0iMWVtIiB3aWR0aD0iMWVtIj4KICA8cGF0aCBkPSJNNCAwaDUuNXYxSDRhMSAxIDAgMCAwLTEgMXYxMmExIDEgMCAwIDAgMSAxaDhhMSAxIDAgMCAwIDEtMVY0LjVoMVYxNGEyIDIgMCAwIDEtMiAySDRhMiAyIDAgMCAxLTItMlYyYTIgMiAwIDAgMSAyLTJ6Ii8+CiAgPHBhdGggZD0iTTkuNSAzVjBMMTQgNC41aC0zQTEuNSAxLjUgMCAwIDEgOS41IDN6Ii8+CiAgPHBhdGggZD0iTTUgMTEuNWEuNS41IDAgMCAxIC41LS41aDJhLjUuNSAwIDAgMSAwIDFoLTJhLjUuNSAwIDAgMS0uNS0uNXptMC0yYS41LjUgMCAwIDEgLjUtLjVoNWEuNS41IDAgMCAxIDAgMWgtNWEuNS41IDAgMCAxLS41LS41em0wLTJhLjUuNSAwIDAgMSAuNS0uNWg1YS41LjUgMCAwIDEgMCAxaC01YS41LjUgMCAwIDEtLjUtLjV6IiBmaWxsLXJ1bGU9ImV2ZW5vZGQiLz4KPC9zdmc+;container=0;" vertex="1" parent="154">
                    <mxGeometry x="20.665604316212686" width="47.75" height="47.75" as="geometry"/>
                </mxCell>
                <mxCell id="156" value="Copybook" style="text;html=1;strokeColor=none;fillColor=none;align=center;verticalAlign=middle;whiteSpace=wrap;rounded=0;fontSize=9;container=0;" vertex="1" parent="154">
                    <mxGeometry x="19.54" y="47.75" width="50" height="20" as="geometry"/>
                </mxCell>
                <mxCell id="157" value="" style="group" vertex="1" connectable="0" parent="227">
                    <mxGeometry x="275.7791933693047" y="67.53999999999996" width="60" height="70.75" as="geometry"/>
                </mxCell>
                <mxCell id="158" value="" style="shape=image;verticalLabelPosition=bottom;labelBackgroundColor=default;verticalAlign=top;aspect=fixed;imageAspect=0;image=data:image/svg+xml,PHN2ZyB4bWxuczp4bGluaz0iaHR0cDovL3d3dy53My5vcmcvMTk5OS94bGluayIgeG1sbnM9Imh0dHA6Ly93d3cudzMub3JnLzIwMDAvc3ZnIiB2aWV3Qm94PSIwIDAgMzIgMzIiPjxsaW5lYXJHcmFkaWVudCB5Mj0iLTIwMi44NCIgeTE9Ii0yMDIuOTEiIHgyPSItMTMzLjE5OCIgeDE9Ii0xMzMuMjY4IiBncmFkaWVudFVuaXRzPSJ1c2VyU3BhY2VPblVzZSIgZ3JhZGllbnRUcmFuc2Zvcm09Im1hdHJpeCgxODkuMzggMCAwIDE4OS44MSAyNTI0My4wNjEgMzg1MTkuMTcpIiBpZD0iYSI+PHN0b3Agc3RvcC1jb2xvcj0iIzM4N2ViOCIgb2Zmc2V0PSIwIi8+PHN0b3Agc3RvcC1jb2xvcj0iIzM2Njk5NCIgb2Zmc2V0PSIxIi8+PC9saW5lYXJHcmFkaWVudD48bGluZWFyR3JhZGllbnQgeTI9Ii0yMDMuMTMzIiB5MT0iLTIwMy4yMDMiIHgyPSItMTMzLjQ5NSIgeDE9Ii0xMzMuNTc1IiBncmFkaWVudFVuaXRzPSJ1c2VyU3BhY2VPblVzZSIgZ3JhZGllbnRUcmFuc2Zvcm09Im1hdHJpeCgxODkuMzggMCAwIDE4OS44MSAyNTMwOS4wNjEgMzg1ODMuNDIpIiBpZD0iYiI+PHN0b3Agc3RvcC1jb2xvcj0iI2ZmZTA1MiIgb2Zmc2V0PSIwIi8+PHN0b3Agc3RvcC1jb2xvcj0iI2ZmYzMzMSIgb2Zmc2V0PSIxIi8+PC9saW5lYXJHcmFkaWVudD48cGF0aCBmaWxsPSJ1cmwoI2EpIiBkPSJtMTUuODg1IDIuMWMtNy4xIDAtNi42NTEgMy4wNy02LjY1MSAzLjA3djMuMTloNi43NTJ2MWgtOS40NDFzLTQuNTQ1LS41Ni00LjU0NSA2LjY0NSA0LjAxMyA2LjkxMiA0LjAxMyA2LjkxMmgyLjMxN3YtMy4zNjFzLS4xMy00LjAxMyAzLjktNC4wMTNoNi43NjJzMy43NzIuMDYgMy43NzItMy42NTJ2LTYuMDkxcy41NzItMy43MTItNi44NDItMy43MTJ6bS0zLjczMiAyLjEzN2ExLjIxNCAxLjIxNCAwIDEgMSAtMS4xODMgMS4yNDR2LS4wMmExLjIxNCAxLjIxNCAwIDAgMSAxLjIxNC0xLjIxNHoiLz48cGF0aCBmaWxsPSJ1cmwoI2IpIiBkPSJtMTYuMDg1IDI5LjkxYzcuMSAwIDYuNjUxLTMuMDggNi42NTEtMy4wOHYtMy4xOGgtNi43NTF2LTFoOS40N3M0LjU0NS41MDggNC41NDUtNi42NTUtNC4wMTMtNi45MTItNC4wMTMtNi45MTJoLTIuMzQ3djMuMzE3cy4xMyA0LjAxMy0zLjkgNC4wMTNoLTYuNzY1cy0zLjc3NS0uMDU3LTMuNzc1IDMuNjU1djYuMTMycy0uNTcyIDMuNzEyIDYuODQyIDMuNzEyaC4wNHptMy43MzItMi4xNDdhMS4yMTQgMS4yMTQgMCAxIDEgMS4xODMtMS4yNDR2LjAzYTEuMjE0IDEuMjE0IDAgMCAxIC0xLjIxNCAxLjIxNGguMDN6Ii8+PC9zdmc+;container=0;" vertex="1" parent="157">
                    <mxGeometry x="3.2513446442137024" width="53.5" height="53.5" as="geometry"/>
                </mxCell>
                <mxCell id="159" value="Particiona os&lt;br&gt;binários" style="text;html=1;strokeColor=none;fillColor=none;align=center;verticalAlign=middle;whiteSpace=wrap;rounded=0;fontSize=9;container=0;" vertex="1" parent="157">
                    <mxGeometry y="50.75" width="60" height="20" as="geometry"/>
                </mxCell>
                <mxCell id="170" value="" style="group" vertex="1" connectable="0" parent="227">
                    <mxGeometry x="0.9965494672458135" y="73.28999999999996" width="94.40598398815666" height="69" as="geometry"/>
                </mxCell>
                <mxCell id="171" value="" style="sketch=0;points=[[0,0,0],[0.25,0,0],[0.5,0,0],[0.75,0,0],[1,0,0],[0,1,0],[0.25,1,0],[0.5,1,0],[0.75,1,0],[1,1,0],[0,0.25,0],[0,0.5,0],[0,0.75,0],[1,0.25,0],[1,0.5,0],[1,0.75,0]];outlineConnect=0;fontColor=#232F3E;gradientColor=#4D72F3;gradientDirection=north;fillColor=#3334B9;strokeColor=#ffffff;dashed=0;verticalLabelPosition=bottom;verticalAlign=top;align=center;html=1;fontSize=12;fontStyle=0;aspect=fixed;shape=mxgraph.aws4.resourceIcon;resIcon=mxgraph.aws4.command_line_interface;container=0;" vertex="1" parent="170">
                    <mxGeometry x="10.931361094168215" width="49" height="49" as="geometry"/>
                </mxCell>
                <mxCell id="172" value="AWS CLI baixa o arquivo bruto" style="text;html=1;strokeColor=none;fillColor=none;align=center;verticalAlign=middle;whiteSpace=wrap;rounded=0;fontSize=9;container=0;" vertex="1" parent="170">
                    <mxGeometry x="0.43" y="53" width="70" height="20" as="geometry"/>
                </mxCell>
                <mxCell id="173" style="edgeStyle=orthogonalEdgeStyle;html=1;exitX=1;exitY=0.5;exitDx=0;exitDy=0;exitPerimeter=0;endArrow=block;endFill=1;rounded=0;" edge="1" parent="227" source="171" target="155">
                    <mxGeometry relative="1" as="geometry">
                        <mxPoint x="89.02662528555271" y="98.03999999999996" as="sourcePoint"/>
                        <mxPoint x="156.4036933797911" y="136.28999999999996" as="targetPoint"/>
                        <Array as="points">
                            <mxPoint x="78" y="98"/>
                            <mxPoint x="78" y="144"/>
                        </Array>
                    </mxGeometry>
                </mxCell>
                <mxCell id="174" style="edgeStyle=orthogonalEdgeStyle;html=1;exitX=1;exitY=0.5;exitDx=0;exitDy=0;entryX=0;entryY=0.5;entryDx=0;entryDy=0;exitPerimeter=0;endArrow=block;endFill=1;rounded=0;" edge="1" parent="227" source="171" target="152">
                    <mxGeometry relative="1" as="geometry">
                        <mxPoint x="178.14416230009545" y="56.289999999999964" as="targetPoint"/>
                        <mxPoint x="91.16985527007807" y="98.03999999999996" as="sourcePoint"/>
                        <Array as="points">
                            <mxPoint x="78" y="98"/>
                            <mxPoint x="78" y="48"/>
                        </Array>
                    </mxGeometry>
                </mxCell>
                <mxCell id="195" value="" style="group" vertex="1" connectable="0" parent="227">
                    <mxGeometry x="364" y="32.289999999999964" width="53" height="124" as="geometry"/>
                </mxCell>
                <mxCell id="177" value="" style="shape=image;verticalLabelPosition=bottom;labelBackgroundColor=default;verticalAlign=top;aspect=fixed;imageAspect=0;image=data:image/svg+xml,PHN2ZyB4bWxucz0iaHR0cDovL3d3dy53My5vcmcvMjAwMC9zdmciIGZpbGw9ImN1cnJlbnRDb2xvciIgY2xhc3M9ImJpIGJpLWZpbGUtZWFybWFyay1iaW5hcnkiIHZpZXdCb3g9IjAgMCAxNiAxNiIgaGVpZ2h0PSIxZW0iIHdpZHRoPSIxZW0iPgogIDxwYXRoIGQ9Ik00IDBoNS41djFINGExIDEgMCAwIDAtMSAxdjEyYTEgMSAwIDAgMCAxIDFoOGExIDEgMCAwIDAgMS0xVjQuNWgxVjE0YTIgMiAwIDAgMS0yIDJINGEyIDIgMCAwIDEtMi0yVjJhMiAyIDAgMCAxIDItMnoiLz4KICA8cGF0aCBkPSJNOS41IDNWMEwxNCA0LjVoLTNBMS41IDEuNSAwIDAgMSA5LjUgM3pNNS41MjYgMTQuMDljLjk3NiAwIDEuNTI0LS43OSAxLjUyNC0yLjIwNSAwLTEuNDEyLS41NDgtMi4yMDMtMS41MjQtMi4yMDMtLjk3OCAwLTEuNTI2Ljc5LTEuNTI2IDIuMjAzIDAgMS40MTUuNTQ4IDIuMjA2IDEuNTI2IDIuMjA2em0tLjgzMi0yLjIwNWMwLTEuMDUuMjktMS42MTIuODMyLTEuNjEyLjM1OCAwIC42MDcuMjQ3LjczMy43MjFMNC43IDEyLjEzN2E2Ljc0OSA2Ljc0OSAwIDAgMS0uMDA2LS4yNTJ6bS44MzIgMS42MTRjLS4zNiAwLS42MDYtLjI0Ni0uNzMyLS43MThsMS41NTYtMS4xNDVjLjAwMy4wNzkuMDA1LjE2NC4wMDUuMjQ5IDAgMS4wNTItLjI5IDEuNjE0LS44MjkgMS42MTR6bTUuMzI5LjUwMXYtLjU5NUg5LjczVjkuNzcyaC0uNjlsLTEuMTkuNzg2di42ODhsMS4xMzYtLjc0N2guMDV2Mi45MDZoLTEuMThWMTRoM3oiLz4KPC9zdmc+;container=0;" vertex="1" parent="195">
                    <mxGeometry width="19" height="19" as="geometry"/>
                </mxCell>
                <mxCell id="178" value="" style="shape=image;verticalLabelPosition=bottom;labelBackgroundColor=default;verticalAlign=top;aspect=fixed;imageAspect=0;image=data:image/svg+xml,PHN2ZyB4bWxucz0iaHR0cDovL3d3dy53My5vcmcvMjAwMC9zdmciIGZpbGw9ImN1cnJlbnRDb2xvciIgY2xhc3M9ImJpIGJpLWZpbGUtZWFybWFyay1iaW5hcnkiIHZpZXdCb3g9IjAgMCAxNiAxNiIgaGVpZ2h0PSIxZW0iIHdpZHRoPSIxZW0iPgogIDxwYXRoIGQ9Ik00IDBoNS41djFINGExIDEgMCAwIDAtMSAxdjEyYTEgMSAwIDAgMCAxIDFoOGExIDEgMCAwIDAgMS0xVjQuNWgxVjE0YTIgMiAwIDAgMS0yIDJINGEyIDIgMCAwIDEtMi0yVjJhMiAyIDAgMCAxIDItMnoiLz4KICA8cGF0aCBkPSJNOS41IDNWMEwxNCA0LjVoLTNBMS41IDEuNSAwIDAgMSA5LjUgM3pNNS41MjYgMTQuMDljLjk3NiAwIDEuNTI0LS43OSAxLjUyNC0yLjIwNSAwLTEuNDEyLS41NDgtMi4yMDMtMS41MjQtMi4yMDMtLjk3OCAwLTEuNTI2Ljc5LTEuNTI2IDIuMjAzIDAgMS40MTUuNTQ4IDIuMjA2IDEuNTI2IDIuMjA2em0tLjgzMi0yLjIwNWMwLTEuMDUuMjktMS42MTIuODMyLTEuNjEyLjM1OCAwIC42MDcuMjQ3LjczMy43MjFMNC43IDEyLjEzN2E2Ljc0OSA2Ljc0OSAwIDAgMS0uMDA2LS4yNTJ6bS44MzIgMS42MTRjLS4zNiAwLS42MDYtLjI0Ni0uNzMyLS43MThsMS41NTYtMS4xNDVjLjAwMy4wNzkuMDA1LjE2NC4wMDUuMjQ5IDAgMS4wNTItLjI5IDEuNjE0LS44MjkgMS42MTR6bTUuMzI5LjUwMXYtLjU5NUg5LjczVjkuNzcyaC0uNjlsLTEuMTkuNzg2di42ODhsMS4xMzYtLjc0N2guMDV2Mi45MDZoLTEuMThWMTRoM3oiLz4KPC9zdmc+;container=0;" vertex="1" parent="195">
                    <mxGeometry x="17" width="19" height="19" as="geometry"/>
                </mxCell>
                <mxCell id="179" value="" style="shape=image;verticalLabelPosition=bottom;labelBackgroundColor=default;verticalAlign=top;aspect=fixed;imageAspect=0;image=data:image/svg+xml,PHN2ZyB4bWxucz0iaHR0cDovL3d3dy53My5vcmcvMjAwMC9zdmciIGZpbGw9ImN1cnJlbnRDb2xvciIgY2xhc3M9ImJpIGJpLWZpbGUtZWFybWFyay1iaW5hcnkiIHZpZXdCb3g9IjAgMCAxNiAxNiIgaGVpZ2h0PSIxZW0iIHdpZHRoPSIxZW0iPgogIDxwYXRoIGQ9Ik00IDBoNS41djFINGExIDEgMCAwIDAtMSAxdjEyYTEgMSAwIDAgMCAxIDFoOGExIDEgMCAwIDAgMS0xVjQuNWgxVjE0YTIgMiAwIDAgMS0yIDJINGEyIDIgMCAwIDEtMi0yVjJhMiAyIDAgMCAxIDItMnoiLz4KICA8cGF0aCBkPSJNOS41IDNWMEwxNCA0LjVoLTNBMS41IDEuNSAwIDAgMSA5LjUgM3pNNS41MjYgMTQuMDljLjk3NiAwIDEuNTI0LS43OSAxLjUyNC0yLjIwNSAwLTEuNDEyLS41NDgtMi4yMDMtMS41MjQtMi4yMDMtLjk3OCAwLTEuNTI2Ljc5LTEuNTI2IDIuMjAzIDAgMS40MTUuNTQ4IDIuMjA2IDEuNTI2IDIuMjA2em0tLjgzMi0yLjIwNWMwLTEuMDUuMjktMS42MTIuODMyLTEuNjEyLjM1OCAwIC42MDcuMjQ3LjczMy43MjFMNC43IDEyLjEzN2E2Ljc0OSA2Ljc0OSAwIDAgMS0uMDA2LS4yNTJ6bS44MzIgMS42MTRjLS4zNiAwLS42MDYtLjI0Ni0uNzMyLS43MThsMS41NTYtMS4xNDVjLjAwMy4wNzkuMDA1LjE2NC4wMDUuMjQ5IDAgMS4wNTItLjI5IDEuNjE0LS44MjkgMS42MTR6bTUuMzI5LjUwMXYtLjU5NUg5LjczVjkuNzcyaC0uNjlsLTEuMTkuNzg2di42ODhsMS4xMzYtLjc0N2guMDV2Mi45MDZoLTEuMThWMTRoM3oiLz4KPC9zdmc+;container=0;" vertex="1" parent="195">
                    <mxGeometry y="21" width="19" height="19" as="geometry"/>
                </mxCell>
                <mxCell id="180" value="" style="shape=image;verticalLabelPosition=bottom;labelBackgroundColor=default;verticalAlign=top;aspect=fixed;imageAspect=0;image=data:image/svg+xml,PHN2ZyB4bWxucz0iaHR0cDovL3d3dy53My5vcmcvMjAwMC9zdmciIGZpbGw9ImN1cnJlbnRDb2xvciIgY2xhc3M9ImJpIGJpLWZpbGUtZWFybWFyay1iaW5hcnkiIHZpZXdCb3g9IjAgMCAxNiAxNiIgaGVpZ2h0PSIxZW0iIHdpZHRoPSIxZW0iPgogIDxwYXRoIGQ9Ik00IDBoNS41djFINGExIDEgMCAwIDAtMSAxdjEyYTEgMSAwIDAgMCAxIDFoOGExIDEgMCAwIDAgMS0xVjQuNWgxVjE0YTIgMiAwIDAgMS0yIDJINGEyIDIgMCAwIDEtMi0yVjJhMiAyIDAgMCAxIDItMnoiLz4KICA8cGF0aCBkPSJNOS41IDNWMEwxNCA0LjVoLTNBMS41IDEuNSAwIDAgMSA5LjUgM3pNNS41MjYgMTQuMDljLjk3NiAwIDEuNTI0LS43OSAxLjUyNC0yLjIwNSAwLTEuNDEyLS41NDgtMi4yMDMtMS41MjQtMi4yMDMtLjk3OCAwLTEuNTI2Ljc5LTEuNTI2IDIuMjAzIDAgMS40MTUuNTQ4IDIuMjA2IDEuNTI2IDIuMjA2em0tLjgzMi0yLjIwNWMwLTEuMDUuMjktMS42MTIuODMyLTEuNjEyLjM1OCAwIC42MDcuMjQ3LjczMy43MjFMNC43IDEyLjEzN2E2Ljc0OSA2Ljc0OSAwIDAgMS0uMDA2LS4yNTJ6bS44MzIgMS42MTRjLS4zNiAwLS42MDYtLjI0Ni0uNzMyLS43MThsMS41NTYtMS4xNDVjLjAwMy4wNzkuMDA1LjE2NC4wMDUuMjQ5IDAgMS4wNTItLjI5IDEuNjE0LS44MjkgMS42MTR6bTUuMzI5LjUwMXYtLjU5NUg5LjczVjkuNzcyaC0uNjlsLTEuMTkuNzg2di42ODhsMS4xMzYtLjc0N2guMDV2Mi45MDZoLTEuMThWMTRoM3oiLz4KPC9zdmc+;container=0;" vertex="1" parent="195">
                    <mxGeometry x="17" y="21" width="19" height="19" as="geometry"/>
                </mxCell>
                <mxCell id="181" value="" style="shape=image;verticalLabelPosition=bottom;labelBackgroundColor=default;verticalAlign=top;aspect=fixed;imageAspect=0;image=data:image/svg+xml,PHN2ZyB4bWxucz0iaHR0cDovL3d3dy53My5vcmcvMjAwMC9zdmciIGZpbGw9ImN1cnJlbnRDb2xvciIgY2xhc3M9ImJpIGJpLWZpbGUtZWFybWFyay1iaW5hcnkiIHZpZXdCb3g9IjAgMCAxNiAxNiIgaGVpZ2h0PSIxZW0iIHdpZHRoPSIxZW0iPgogIDxwYXRoIGQ9Ik00IDBoNS41djFINGExIDEgMCAwIDAtMSAxdjEyYTEgMSAwIDAgMCAxIDFoOGExIDEgMCAwIDAgMS0xVjQuNWgxVjE0YTIgMiAwIDAgMS0yIDJINGEyIDIgMCAwIDEtMi0yVjJhMiAyIDAgMCAxIDItMnoiLz4KICA8cGF0aCBkPSJNOS41IDNWMEwxNCA0LjVoLTNBMS41IDEuNSAwIDAgMSA5LjUgM3pNNS41MjYgMTQuMDljLjk3NiAwIDEuNTI0LS43OSAxLjUyNC0yLjIwNSAwLTEuNDEyLS41NDgtMi4yMDMtMS41MjQtMi4yMDMtLjk3OCAwLTEuNTI2Ljc5LTEuNTI2IDIuMjAzIDAgMS40MTUuNTQ4IDIuMjA2IDEuNTI2IDIuMjA2em0tLjgzMi0yLjIwNWMwLTEuMDUuMjktMS42MTIuODMyLTEuNjEyLjM1OCAwIC42MDcuMjQ3LjczMy43MjFMNC43IDEyLjEzN2E2Ljc0OSA2Ljc0OSAwIDAgMS0uMDA2LS4yNTJ6bS44MzIgMS42MTRjLS4zNiAwLS42MDYtLjI0Ni0uNzMyLS43MThsMS41NTYtMS4xNDVjLjAwMy4wNzkuMDA1LjE2NC4wMDUuMjQ5IDAgMS4wNTItLjI5IDEuNjE0LS44MjkgMS42MTR6bTUuMzI5LjUwMXYtLjU5NUg5LjczVjkuNzcyaC0uNjlsLTEuMTkuNzg2di42ODhsMS4xMzYtLjc0N2guMDV2Mi45MDZoLTEuMThWMTRoM3oiLz4KPC9zdmc+;container=0;" vertex="1" parent="195">
                    <mxGeometry y="42" width="19" height="19" as="geometry"/>
                </mxCell>
                <mxCell id="182" value="" style="shape=image;verticalLabelPosition=bottom;labelBackgroundColor=default;verticalAlign=top;aspect=fixed;imageAspect=0;image=data:image/svg+xml,PHN2ZyB4bWxucz0iaHR0cDovL3d3dy53My5vcmcvMjAwMC9zdmciIGZpbGw9ImN1cnJlbnRDb2xvciIgY2xhc3M9ImJpIGJpLWZpbGUtZWFybWFyay1iaW5hcnkiIHZpZXdCb3g9IjAgMCAxNiAxNiIgaGVpZ2h0PSIxZW0iIHdpZHRoPSIxZW0iPgogIDxwYXRoIGQ9Ik00IDBoNS41djFINGExIDEgMCAwIDAtMSAxdjEyYTEgMSAwIDAgMCAxIDFoOGExIDEgMCAwIDAgMS0xVjQuNWgxVjE0YTIgMiAwIDAgMS0yIDJINGEyIDIgMCAwIDEtMi0yVjJhMiAyIDAgMCAxIDItMnoiLz4KICA8cGF0aCBkPSJNOS41IDNWMEwxNCA0LjVoLTNBMS41IDEuNSAwIDAgMSA5LjUgM3pNNS41MjYgMTQuMDljLjk3NiAwIDEuNTI0LS43OSAxLjUyNC0yLjIwNSAwLTEuNDEyLS41NDgtMi4yMDMtMS41MjQtMi4yMDMtLjk3OCAwLTEuNTI2Ljc5LTEuNTI2IDIuMjAzIDAgMS40MTUuNTQ4IDIuMjA2IDEuNTI2IDIuMjA2em0tLjgzMi0yLjIwNWMwLTEuMDUuMjktMS42MTIuODMyLTEuNjEyLjM1OCAwIC42MDcuMjQ3LjczMy43MjFMNC43IDEyLjEzN2E2Ljc0OSA2Ljc0OSAwIDAgMS0uMDA2LS4yNTJ6bS44MzIgMS42MTRjLS4zNiAwLS42MDYtLjI0Ni0uNzMyLS43MThsMS41NTYtMS4xNDVjLjAwMy4wNzkuMDA1LjE2NC4wMDUuMjQ5IDAgMS4wNTItLjI5IDEuNjE0LS44MjkgMS42MTR6bTUuMzI5LjUwMXYtLjU5NUg5LjczVjkuNzcyaC0uNjlsLTEuMTkuNzg2di42ODhsMS4xMzYtLjc0N2guMDV2Mi45MDZoLTEuMThWMTRoM3oiLz4KPC9zdmc+;container=0;" vertex="1" parent="195">
                    <mxGeometry x="17" y="42" width="19" height="19" as="geometry"/>
                </mxCell>
                <mxCell id="183" value="" style="shape=image;verticalLabelPosition=bottom;labelBackgroundColor=default;verticalAlign=top;aspect=fixed;imageAspect=0;image=data:image/svg+xml,PHN2ZyB4bWxucz0iaHR0cDovL3d3dy53My5vcmcvMjAwMC9zdmciIGZpbGw9ImN1cnJlbnRDb2xvciIgY2xhc3M9ImJpIGJpLWZpbGUtZWFybWFyay1iaW5hcnkiIHZpZXdCb3g9IjAgMCAxNiAxNiIgaGVpZ2h0PSIxZW0iIHdpZHRoPSIxZW0iPgogIDxwYXRoIGQ9Ik00IDBoNS41djFINGExIDEgMCAwIDAtMSAxdjEyYTEgMSAwIDAgMCAxIDFoOGExIDEgMCAwIDAgMS0xVjQuNWgxVjE0YTIgMiAwIDAgMS0yIDJINGEyIDIgMCAwIDEtMi0yVjJhMiAyIDAgMCAxIDItMnoiLz4KICA8cGF0aCBkPSJNOS41IDNWMEwxNCA0LjVoLTNBMS41IDEuNSAwIDAgMSA5LjUgM3pNNS41MjYgMTQuMDljLjk3NiAwIDEuNTI0LS43OSAxLjUyNC0yLjIwNSAwLTEuNDEyLS41NDgtMi4yMDMtMS41MjQtMi4yMDMtLjk3OCAwLTEuNTI2Ljc5LTEuNTI2IDIuMjAzIDAgMS40MTUuNTQ4IDIuMjA2IDEuNTI2IDIuMjA2em0tLjgzMi0yLjIwNWMwLTEuMDUuMjktMS42MTIuODMyLTEuNjEyLjM1OCAwIC42MDcuMjQ3LjczMy43MjFMNC43IDEyLjEzN2E2Ljc0OSA2Ljc0OSAwIDAgMS0uMDA2LS4yNTJ6bS44MzIgMS42MTRjLS4zNiAwLS42MDYtLjI0Ni0uNzMyLS43MThsMS41NTYtMS4xNDVjLjAwMy4wNzkuMDA1LjE2NC4wMDUuMjQ5IDAgMS4wNTItLjI5IDEuNjE0LS44MjkgMS42MTR6bTUuMzI5LjUwMXYtLjU5NUg5LjczVjkuNzcyaC0uNjlsLTEuMTkuNzg2di42ODhsMS4xMzYtLjc0N2guMDV2Mi45MDZoLTEuMThWMTRoM3oiLz4KPC9zdmc+;container=0;" vertex="1" parent="195">
                    <mxGeometry y="63" width="19" height="19" as="geometry"/>
                </mxCell>
                <mxCell id="184" value="" style="shape=image;verticalLabelPosition=bottom;labelBackgroundColor=default;verticalAlign=top;aspect=fixed;imageAspect=0;image=data:image/svg+xml,PHN2ZyB4bWxucz0iaHR0cDovL3d3dy53My5vcmcvMjAwMC9zdmciIGZpbGw9ImN1cnJlbnRDb2xvciIgY2xhc3M9ImJpIGJpLWZpbGUtZWFybWFyay1iaW5hcnkiIHZpZXdCb3g9IjAgMCAxNiAxNiIgaGVpZ2h0PSIxZW0iIHdpZHRoPSIxZW0iPgogIDxwYXRoIGQ9Ik00IDBoNS41djFINGExIDEgMCAwIDAtMSAxdjEyYTEgMSAwIDAgMCAxIDFoOGExIDEgMCAwIDAgMS0xVjQuNWgxVjE0YTIgMiAwIDAgMS0yIDJINGEyIDIgMCAwIDEtMi0yVjJhMiAyIDAgMCAxIDItMnoiLz4KICA8cGF0aCBkPSJNOS41IDNWMEwxNCA0LjVoLTNBMS41IDEuNSAwIDAgMSA5LjUgM3pNNS41MjYgMTQuMDljLjk3NiAwIDEuNTI0LS43OSAxLjUyNC0yLjIwNSAwLTEuNDEyLS41NDgtMi4yMDMtMS41MjQtMi4yMDMtLjk3OCAwLTEuNTI2Ljc5LTEuNTI2IDIuMjAzIDAgMS40MTUuNTQ4IDIuMjA2IDEuNTI2IDIuMjA2em0tLjgzMi0yLjIwNWMwLTEuMDUuMjktMS42MTIuODMyLTEuNjEyLjM1OCAwIC42MDcuMjQ3LjczMy43MjFMNC43IDEyLjEzN2E2Ljc0OSA2Ljc0OSAwIDAgMS0uMDA2LS4yNTJ6bS44MzIgMS42MTRjLS4zNiAwLS42MDYtLjI0Ni0uNzMyLS43MThsMS41NTYtMS4xNDVjLjAwMy4wNzkuMDA1LjE2NC4wMDUuMjQ5IDAgMS4wNTItLjI5IDEuNjE0LS44MjkgMS42MTR6bTUuMzI5LjUwMXYtLjU5NUg5LjczVjkuNzcyaC0uNjlsLTEuMTkuNzg2di42ODhsMS4xMzYtLjc0N2guMDV2Mi45MDZoLTEuMThWMTRoM3oiLz4KPC9zdmc+;container=0;" vertex="1" parent="195">
                    <mxGeometry x="17" y="63" width="19" height="19" as="geometry"/>
                </mxCell>
                <mxCell id="185" value="" style="shape=image;verticalLabelPosition=bottom;labelBackgroundColor=default;verticalAlign=top;aspect=fixed;imageAspect=0;image=data:image/svg+xml,PHN2ZyB4bWxucz0iaHR0cDovL3d3dy53My5vcmcvMjAwMC9zdmciIGZpbGw9ImN1cnJlbnRDb2xvciIgY2xhc3M9ImJpIGJpLWZpbGUtZWFybWFyay1iaW5hcnkiIHZpZXdCb3g9IjAgMCAxNiAxNiIgaGVpZ2h0PSIxZW0iIHdpZHRoPSIxZW0iPgogIDxwYXRoIGQ9Ik00IDBoNS41djFINGExIDEgMCAwIDAtMSAxdjEyYTEgMSAwIDAgMCAxIDFoOGExIDEgMCAwIDAgMS0xVjQuNWgxVjE0YTIgMiAwIDAgMS0yIDJINGEyIDIgMCAwIDEtMi0yVjJhMiAyIDAgMCAxIDItMnoiLz4KICA8cGF0aCBkPSJNOS41IDNWMEwxNCA0LjVoLTNBMS41IDEuNSAwIDAgMSA5LjUgM3pNNS41MjYgMTQuMDljLjk3NiAwIDEuNTI0LS43OSAxLjUyNC0yLjIwNSAwLTEuNDEyLS41NDgtMi4yMDMtMS41MjQtMi4yMDMtLjk3OCAwLTEuNTI2Ljc5LTEuNTI2IDIuMjAzIDAgMS40MTUuNTQ4IDIuMjA2IDEuNTI2IDIuMjA2em0tLjgzMi0yLjIwNWMwLTEuMDUuMjktMS42MTIuODMyLTEuNjEyLjM1OCAwIC42MDcuMjQ3LjczMy43MjFMNC43IDEyLjEzN2E2Ljc0OSA2Ljc0OSAwIDAgMS0uMDA2LS4yNTJ6bS44MzIgMS42MTRjLS4zNiAwLS42MDYtLjI0Ni0uNzMyLS43MThsMS41NTYtMS4xNDVjLjAwMy4wNzkuMDA1LjE2NC4wMDUuMjQ5IDAgMS4wNTItLjI5IDEuNjE0LS44MjkgMS42MTR6bTUuMzI5LjUwMXYtLjU5NUg5LjczVjkuNzcyaC0uNjlsLTEuMTkuNzg2di42ODhsMS4xMzYtLjc0N2guMDV2Mi45MDZoLTEuMThWMTRoM3oiLz4KPC9zdmc+;container=0;" vertex="1" parent="195">
                    <mxGeometry y="84" width="19" height="19" as="geometry"/>
                </mxCell>
                <mxCell id="186" value="" style="shape=image;verticalLabelPosition=bottom;labelBackgroundColor=default;verticalAlign=top;aspect=fixed;imageAspect=0;image=data:image/svg+xml,PHN2ZyB4bWxucz0iaHR0cDovL3d3dy53My5vcmcvMjAwMC9zdmciIGZpbGw9ImN1cnJlbnRDb2xvciIgY2xhc3M9ImJpIGJpLWZpbGUtZWFybWFyay1iaW5hcnkiIHZpZXdCb3g9IjAgMCAxNiAxNiIgaGVpZ2h0PSIxZW0iIHdpZHRoPSIxZW0iPgogIDxwYXRoIGQ9Ik00IDBoNS41djFINGExIDEgMCAwIDAtMSAxdjEyYTEgMSAwIDAgMCAxIDFoOGExIDEgMCAwIDAgMS0xVjQuNWgxVjE0YTIgMiAwIDAgMS0yIDJINGEyIDIgMCAwIDEtMi0yVjJhMiAyIDAgMCAxIDItMnoiLz4KICA8cGF0aCBkPSJNOS41IDNWMEwxNCA0LjVoLTNBMS41IDEuNSAwIDAgMSA5LjUgM3pNNS41MjYgMTQuMDljLjk3NiAwIDEuNTI0LS43OSAxLjUyNC0yLjIwNSAwLTEuNDEyLS41NDgtMi4yMDMtMS41MjQtMi4yMDMtLjk3OCAwLTEuNTI2Ljc5LTEuNTI2IDIuMjAzIDAgMS40MTUuNTQ4IDIuMjA2IDEuNTI2IDIuMjA2em0tLjgzMi0yLjIwNWMwLTEuMDUuMjktMS42MTIuODMyLTEuNjEyLjM1OCAwIC42MDcuMjQ3LjczMy43MjFMNC43IDEyLjEzN2E2Ljc0OSA2Ljc0OSAwIDAgMS0uMDA2LS4yNTJ6bS44MzIgMS42MTRjLS4zNiAwLS42MDYtLjI0Ni0uNzMyLS43MThsMS41NTYtMS4xNDVjLjAwMy4wNzkuMDA1LjE2NC4wMDUuMjQ5IDAgMS4wNTItLjI5IDEuNjE0LS44MjkgMS42MTR6bTUuMzI5LjUwMXYtLjU5NUg5LjczVjkuNzcyaC0uNjlsLTEuMTkuNzg2di42ODhsMS4xMzYtLjc0N2guMDV2Mi45MDZoLTEuMThWMTRoM3oiLz4KPC9zdmc+;container=0;" vertex="1" parent="195">
                    <mxGeometry x="17" y="84" width="19" height="19" as="geometry"/>
                </mxCell>
                <mxCell id="187" value="" style="shape=image;verticalLabelPosition=bottom;labelBackgroundColor=default;verticalAlign=top;aspect=fixed;imageAspect=0;image=data:image/svg+xml,PHN2ZyB4bWxucz0iaHR0cDovL3d3dy53My5vcmcvMjAwMC9zdmciIGZpbGw9ImN1cnJlbnRDb2xvciIgY2xhc3M9ImJpIGJpLWZpbGUtZWFybWFyay1iaW5hcnkiIHZpZXdCb3g9IjAgMCAxNiAxNiIgaGVpZ2h0PSIxZW0iIHdpZHRoPSIxZW0iPgogIDxwYXRoIGQ9Ik00IDBoNS41djFINGExIDEgMCAwIDAtMSAxdjEyYTEgMSAwIDAgMCAxIDFoOGExIDEgMCAwIDAgMS0xVjQuNWgxVjE0YTIgMiAwIDAgMS0yIDJINGEyIDIgMCAwIDEtMi0yVjJhMiAyIDAgMCAxIDItMnoiLz4KICA8cGF0aCBkPSJNOS41IDNWMEwxNCA0LjVoLTNBMS41IDEuNSAwIDAgMSA5LjUgM3pNNS41MjYgMTQuMDljLjk3NiAwIDEuNTI0LS43OSAxLjUyNC0yLjIwNSAwLTEuNDEyLS41NDgtMi4yMDMtMS41MjQtMi4yMDMtLjk3OCAwLTEuNTI2Ljc5LTEuNTI2IDIuMjAzIDAgMS40MTUuNTQ4IDIuMjA2IDEuNTI2IDIuMjA2em0tLjgzMi0yLjIwNWMwLTEuMDUuMjktMS42MTIuODMyLTEuNjEyLjM1OCAwIC42MDcuMjQ3LjczMy43MjFMNC43IDEyLjEzN2E2Ljc0OSA2Ljc0OSAwIDAgMS0uMDA2LS4yNTJ6bS44MzIgMS42MTRjLS4zNiAwLS42MDYtLjI0Ni0uNzMyLS43MThsMS41NTYtMS4xNDVjLjAwMy4wNzkuMDA1LjE2NC4wMDUuMjQ5IDAgMS4wNTItLjI5IDEuNjE0LS44MjkgMS42MTR6bTUuMzI5LjUwMXYtLjU5NUg5LjczVjkuNzcyaC0uNjlsLTEuMTkuNzg2di42ODhsMS4xMzYtLjc0N2guMDV2Mi45MDZoLTEuMThWMTRoM3oiLz4KPC9zdmc+;container=0;" vertex="1" parent="195">
                    <mxGeometry y="105" width="19" height="19" as="geometry"/>
                </mxCell>
                <mxCell id="188" value="" style="shape=image;verticalLabelPosition=bottom;labelBackgroundColor=default;verticalAlign=top;aspect=fixed;imageAspect=0;image=data:image/svg+xml,PHN2ZyB4bWxucz0iaHR0cDovL3d3dy53My5vcmcvMjAwMC9zdmciIGZpbGw9ImN1cnJlbnRDb2xvciIgY2xhc3M9ImJpIGJpLWZpbGUtZWFybWFyay1iaW5hcnkiIHZpZXdCb3g9IjAgMCAxNiAxNiIgaGVpZ2h0PSIxZW0iIHdpZHRoPSIxZW0iPgogIDxwYXRoIGQ9Ik00IDBoNS41djFINGExIDEgMCAwIDAtMSAxdjEyYTEgMSAwIDAgMCAxIDFoOGExIDEgMCAwIDAgMS0xVjQuNWgxVjE0YTIgMiAwIDAgMS0yIDJINGEyIDIgMCAwIDEtMi0yVjJhMiAyIDAgMCAxIDItMnoiLz4KICA8cGF0aCBkPSJNOS41IDNWMEwxNCA0LjVoLTNBMS41IDEuNSAwIDAgMSA5LjUgM3pNNS41MjYgMTQuMDljLjk3NiAwIDEuNTI0LS43OSAxLjUyNC0yLjIwNSAwLTEuNDEyLS41NDgtMi4yMDMtMS41MjQtMi4yMDMtLjk3OCAwLTEuNTI2Ljc5LTEuNTI2IDIuMjAzIDAgMS40MTUuNTQ4IDIuMjA2IDEuNTI2IDIuMjA2em0tLjgzMi0yLjIwNWMwLTEuMDUuMjktMS42MTIuODMyLTEuNjEyLjM1OCAwIC42MDcuMjQ3LjczMy43MjFMNC43IDEyLjEzN2E2Ljc0OSA2Ljc0OSAwIDAgMS0uMDA2LS4yNTJ6bS44MzIgMS42MTRjLS4zNiAwLS42MDYtLjI0Ni0uNzMyLS43MThsMS41NTYtMS4xNDVjLjAwMy4wNzkuMDA1LjE2NC4wMDUuMjQ5IDAgMS4wNTItLjI5IDEuNjE0LS44MjkgMS42MTR6bTUuMzI5LjUwMXYtLjU5NUg5LjczVjkuNzcyaC0uNjlsLTEuMTkuNzg2di42ODhsMS4xMzYtLjc0N2guMDV2Mi45MDZoLTEuMThWMTRoM3oiLz4KPC9zdmc+;container=0;" vertex="1" parent="195">
                    <mxGeometry x="17" y="105" width="19" height="19" as="geometry"/>
                </mxCell>
                <mxCell id="189" value="" style="shape=image;verticalLabelPosition=bottom;labelBackgroundColor=default;verticalAlign=top;aspect=fixed;imageAspect=0;image=data:image/svg+xml,PHN2ZyB4bWxucz0iaHR0cDovL3d3dy53My5vcmcvMjAwMC9zdmciIGZpbGw9ImN1cnJlbnRDb2xvciIgY2xhc3M9ImJpIGJpLWZpbGUtZWFybWFyay1iaW5hcnkiIHZpZXdCb3g9IjAgMCAxNiAxNiIgaGVpZ2h0PSIxZW0iIHdpZHRoPSIxZW0iPgogIDxwYXRoIGQ9Ik00IDBoNS41djFINGExIDEgMCAwIDAtMSAxdjEyYTEgMSAwIDAgMCAxIDFoOGExIDEgMCAwIDAgMS0xVjQuNWgxVjE0YTIgMiAwIDAgMS0yIDJINGEyIDIgMCAwIDEtMi0yVjJhMiAyIDAgMCAxIDItMnoiLz4KICA8cGF0aCBkPSJNOS41IDNWMEwxNCA0LjVoLTNBMS41IDEuNSAwIDAgMSA5LjUgM3pNNS41MjYgMTQuMDljLjk3NiAwIDEuNTI0LS43OSAxLjUyNC0yLjIwNSAwLTEuNDEyLS41NDgtMi4yMDMtMS41MjQtMi4yMDMtLjk3OCAwLTEuNTI2Ljc5LTEuNTI2IDIuMjAzIDAgMS40MTUuNTQ4IDIuMjA2IDEuNTI2IDIuMjA2em0tLjgzMi0yLjIwNWMwLTEuMDUuMjktMS42MTIuODMyLTEuNjEyLjM1OCAwIC42MDcuMjQ3LjczMy43MjFMNC43IDEyLjEzN2E2Ljc0OSA2Ljc0OSAwIDAgMS0uMDA2LS4yNTJ6bS44MzIgMS42MTRjLS4zNiAwLS42MDYtLjI0Ni0uNzMyLS43MThsMS41NTYtMS4xNDVjLjAwMy4wNzkuMDA1LjE2NC4wMDUuMjQ5IDAgMS4wNTItLjI5IDEuNjE0LS44MjkgMS42MTR6bTUuMzI5LjUwMXYtLjU5NUg5LjczVjkuNzcyaC0uNjlsLTEuMTkuNzg2di42ODhsMS4xMzYtLjc0N2guMDV2Mi45MDZoLTEuMThWMTRoM3oiLz4KPC9zdmc+;container=0;" vertex="1" parent="195">
                    <mxGeometry x="34" width="19" height="19" as="geometry"/>
                </mxCell>
                <mxCell id="190" value="" style="shape=image;verticalLabelPosition=bottom;labelBackgroundColor=default;verticalAlign=top;aspect=fixed;imageAspect=0;image=data:image/svg+xml,PHN2ZyB4bWxucz0iaHR0cDovL3d3dy53My5vcmcvMjAwMC9zdmciIGZpbGw9ImN1cnJlbnRDb2xvciIgY2xhc3M9ImJpIGJpLWZpbGUtZWFybWFyay1iaW5hcnkiIHZpZXdCb3g9IjAgMCAxNiAxNiIgaGVpZ2h0PSIxZW0iIHdpZHRoPSIxZW0iPgogIDxwYXRoIGQ9Ik00IDBoNS41djFINGExIDEgMCAwIDAtMSAxdjEyYTEgMSAwIDAgMCAxIDFoOGExIDEgMCAwIDAgMS0xVjQuNWgxVjE0YTIgMiAwIDAgMS0yIDJINGEyIDIgMCAwIDEtMi0yVjJhMiAyIDAgMCAxIDItMnoiLz4KICA8cGF0aCBkPSJNOS41IDNWMEwxNCA0LjVoLTNBMS41IDEuNSAwIDAgMSA5LjUgM3pNNS41MjYgMTQuMDljLjk3NiAwIDEuNTI0LS43OSAxLjUyNC0yLjIwNSAwLTEuNDEyLS41NDgtMi4yMDMtMS41MjQtMi4yMDMtLjk3OCAwLTEuNTI2Ljc5LTEuNTI2IDIuMjAzIDAgMS40MTUuNTQ4IDIuMjA2IDEuNTI2IDIuMjA2em0tLjgzMi0yLjIwNWMwLTEuMDUuMjktMS42MTIuODMyLTEuNjEyLjM1OCAwIC42MDcuMjQ3LjczMy43MjFMNC43IDEyLjEzN2E2Ljc0OSA2Ljc0OSAwIDAgMS0uMDA2LS4yNTJ6bS44MzIgMS42MTRjLS4zNiAwLS42MDYtLjI0Ni0uNzMyLS43MThsMS41NTYtMS4xNDVjLjAwMy4wNzkuMDA1LjE2NC4wMDUuMjQ5IDAgMS4wNTItLjI5IDEuNjE0LS44MjkgMS42MTR6bTUuMzI5LjUwMXYtLjU5NUg5LjczVjkuNzcyaC0uNjlsLTEuMTkuNzg2di42ODhsMS4xMzYtLjc0N2guMDV2Mi45MDZoLTEuMThWMTRoM3oiLz4KPC9zdmc+;container=0;" vertex="1" parent="195">
                    <mxGeometry x="34" y="21" width="19" height="19" as="geometry"/>
                </mxCell>
                <mxCell id="191" value="" style="shape=image;verticalLabelPosition=bottom;labelBackgroundColor=default;verticalAlign=top;aspect=fixed;imageAspect=0;image=data:image/svg+xml,PHN2ZyB4bWxucz0iaHR0cDovL3d3dy53My5vcmcvMjAwMC9zdmciIGZpbGw9ImN1cnJlbnRDb2xvciIgY2xhc3M9ImJpIGJpLWZpbGUtZWFybWFyay1iaW5hcnkiIHZpZXdCb3g9IjAgMCAxNiAxNiIgaGVpZ2h0PSIxZW0iIHdpZHRoPSIxZW0iPgogIDxwYXRoIGQ9Ik00IDBoNS41djFINGExIDEgMCAwIDAtMSAxdjEyYTEgMSAwIDAgMCAxIDFoOGExIDEgMCAwIDAgMS0xVjQuNWgxVjE0YTIgMiAwIDAgMS0yIDJINGEyIDIgMCAwIDEtMi0yVjJhMiAyIDAgMCAxIDItMnoiLz4KICA8cGF0aCBkPSJNOS41IDNWMEwxNCA0LjVoLTNBMS41IDEuNSAwIDAgMSA5LjUgM3pNNS41MjYgMTQuMDljLjk3NiAwIDEuNTI0LS43OSAxLjUyNC0yLjIwNSAwLTEuNDEyLS41NDgtMi4yMDMtMS41MjQtMi4yMDMtLjk3OCAwLTEuNTI2Ljc5LTEuNTI2IDIuMjAzIDAgMS40MTUuNTQ4IDIuMjA2IDEuNTI2IDIuMjA2em0tLjgzMi0yLjIwNWMwLTEuMDUuMjktMS42MTIuODMyLTEuNjEyLjM1OCAwIC42MDcuMjQ3LjczMy43MjFMNC43IDEyLjEzN2E2Ljc0OSA2Ljc0OSAwIDAgMS0uMDA2LS4yNTJ6bS44MzIgMS42MTRjLS4zNiAwLS42MDYtLjI0Ni0uNzMyLS43MThsMS41NTYtMS4xNDVjLjAwMy4wNzkuMDA1LjE2NC4wMDUuMjQ5IDAgMS4wNTItLjI5IDEuNjE0LS44MjkgMS42MTR6bTUuMzI5LjUwMXYtLjU5NUg5LjczVjkuNzcyaC0uNjlsLTEuMTkuNzg2di42ODhsMS4xMzYtLjc0N2guMDV2Mi45MDZoLTEuMThWMTRoM3oiLz4KPC9zdmc+;container=0;" vertex="1" parent="195">
                    <mxGeometry x="34" y="42" width="19" height="19" as="geometry"/>
                </mxCell>
                <mxCell id="192" value="" style="shape=image;verticalLabelPosition=bottom;labelBackgroundColor=default;verticalAlign=top;aspect=fixed;imageAspect=0;image=data:image/svg+xml,PHN2ZyB4bWxucz0iaHR0cDovL3d3dy53My5vcmcvMjAwMC9zdmciIGZpbGw9ImN1cnJlbnRDb2xvciIgY2xhc3M9ImJpIGJpLWZpbGUtZWFybWFyay1iaW5hcnkiIHZpZXdCb3g9IjAgMCAxNiAxNiIgaGVpZ2h0PSIxZW0iIHdpZHRoPSIxZW0iPgogIDxwYXRoIGQ9Ik00IDBoNS41djFINGExIDEgMCAwIDAtMSAxdjEyYTEgMSAwIDAgMCAxIDFoOGExIDEgMCAwIDAgMS0xVjQuNWgxVjE0YTIgMiAwIDAgMS0yIDJINGEyIDIgMCAwIDEtMi0yVjJhMiAyIDAgMCAxIDItMnoiLz4KICA8cGF0aCBkPSJNOS41IDNWMEwxNCA0LjVoLTNBMS41IDEuNSAwIDAgMSA5LjUgM3pNNS41MjYgMTQuMDljLjk3NiAwIDEuNTI0LS43OSAxLjUyNC0yLjIwNSAwLTEuNDEyLS41NDgtMi4yMDMtMS41MjQtMi4yMDMtLjk3OCAwLTEuNTI2Ljc5LTEuNTI2IDIuMjAzIDAgMS40MTUuNTQ4IDIuMjA2IDEuNTI2IDIuMjA2em0tLjgzMi0yLjIwNWMwLTEuMDUuMjktMS42MTIuODMyLTEuNjEyLjM1OCAwIC42MDcuMjQ3LjczMy43MjFMNC43IDEyLjEzN2E2Ljc0OSA2Ljc0OSAwIDAgMS0uMDA2LS4yNTJ6bS44MzIgMS42MTRjLS4zNiAwLS42MDYtLjI0Ni0uNzMyLS43MThsMS41NTYtMS4xNDVjLjAwMy4wNzkuMDA1LjE2NC4wMDUuMjQ5IDAgMS4wNTItLjI5IDEuNjE0LS44MjkgMS42MTR6bTUuMzI5LjUwMXYtLjU5NUg5LjczVjkuNzcyaC0uNjlsLTEuMTkuNzg2di42ODhsMS4xMzYtLjc0N2guMDV2Mi45MDZoLTEuMThWMTRoM3oiLz4KPC9zdmc+;container=0;" vertex="1" parent="195">
                    <mxGeometry x="34" y="63" width="19" height="19" as="geometry"/>
                </mxCell>
                <mxCell id="193" value="" style="shape=image;verticalLabelPosition=bottom;labelBackgroundColor=default;verticalAlign=top;aspect=fixed;imageAspect=0;image=data:image/svg+xml,PHN2ZyB4bWxucz0iaHR0cDovL3d3dy53My5vcmcvMjAwMC9zdmciIGZpbGw9ImN1cnJlbnRDb2xvciIgY2xhc3M9ImJpIGJpLWZpbGUtZWFybWFyay1iaW5hcnkiIHZpZXdCb3g9IjAgMCAxNiAxNiIgaGVpZ2h0PSIxZW0iIHdpZHRoPSIxZW0iPgogIDxwYXRoIGQ9Ik00IDBoNS41djFINGExIDEgMCAwIDAtMSAxdjEyYTEgMSAwIDAgMCAxIDFoOGExIDEgMCAwIDAgMS0xVjQuNWgxVjE0YTIgMiAwIDAgMS0yIDJINGEyIDIgMCAwIDEtMi0yVjJhMiAyIDAgMCAxIDItMnoiLz4KICA8cGF0aCBkPSJNOS41IDNWMEwxNCA0LjVoLTNBMS41IDEuNSAwIDAgMSA5LjUgM3pNNS41MjYgMTQuMDljLjk3NiAwIDEuNTI0LS43OSAxLjUyNC0yLjIwNSAwLTEuNDEyLS41NDgtMi4yMDMtMS41MjQtMi4yMDMtLjk3OCAwLTEuNTI2Ljc5LTEuNTI2IDIuMjAzIDAgMS40MTUuNTQ4IDIuMjA2IDEuNTI2IDIuMjA2em0tLjgzMi0yLjIwNWMwLTEuMDUuMjktMS42MTIuODMyLTEuNjEyLjM1OCAwIC42MDcuMjQ3LjczMy43MjFMNC43IDEyLjEzN2E2Ljc0OSA2Ljc0OSAwIDAgMS0uMDA2LS4yNTJ6bS44MzIgMS42MTRjLS4zNiAwLS42MDYtLjI0Ni0uNzMyLS43MThsMS41NTYtMS4xNDVjLjAwMy4wNzkuMDA1LjE2NC4wMDUuMjQ5IDAgMS4wNTItLjI5IDEuNjE0LS44MjkgMS42MTR6bTUuMzI5LjUwMXYtLjU5NUg5LjczVjkuNzcyaC0uNjlsLTEuMTkuNzg2di42ODhsMS4xMzYtLjc0N2guMDV2Mi45MDZoLTEuMThWMTRoM3oiLz4KPC9zdmc+;container=0;" vertex="1" parent="195">
                    <mxGeometry x="34" y="84" width="19" height="19" as="geometry"/>
                </mxCell>
                <mxCell id="194" value="" style="shape=image;verticalLabelPosition=bottom;labelBackgroundColor=default;verticalAlign=top;aspect=fixed;imageAspect=0;image=data:image/svg+xml,PHN2ZyB4bWxucz0iaHR0cDovL3d3dy53My5vcmcvMjAwMC9zdmciIGZpbGw9ImN1cnJlbnRDb2xvciIgY2xhc3M9ImJpIGJpLWZpbGUtZWFybWFyay1iaW5hcnkiIHZpZXdCb3g9IjAgMCAxNiAxNiIgaGVpZ2h0PSIxZW0iIHdpZHRoPSIxZW0iPgogIDxwYXRoIGQ9Ik00IDBoNS41djFINGExIDEgMCAwIDAtMSAxdjEyYTEgMSAwIDAgMCAxIDFoOGExIDEgMCAwIDAgMS0xVjQuNWgxVjE0YTIgMiAwIDAgMS0yIDJINGEyIDIgMCAwIDEtMi0yVjJhMiAyIDAgMCAxIDItMnoiLz4KICA8cGF0aCBkPSJNOS41IDNWMEwxNCA0LjVoLTNBMS41IDEuNSAwIDAgMSA5LjUgM3pNNS41MjYgMTQuMDljLjk3NiAwIDEuNTI0LS43OSAxLjUyNC0yLjIwNSAwLTEuNDEyLS41NDgtMi4yMDMtMS41MjQtMi4yMDMtLjk3OCAwLTEuNTI2Ljc5LTEuNTI2IDIuMjAzIDAgMS40MTUuNTQ4IDIuMjA2IDEuNTI2IDIuMjA2em0tLjgzMi0yLjIwNWMwLTEuMDUuMjktMS42MTIuODMyLTEuNjEyLjM1OCAwIC42MDcuMjQ3LjczMy43MjFMNC43IDEyLjEzN2E2Ljc0OSA2Ljc0OSAwIDAgMS0uMDA2LS4yNTJ6bS44MzIgMS42MTRjLS4zNiAwLS42MDYtLjI0Ni0uNzMyLS43MThsMS41NTYtMS4xNDVjLjAwMy4wNzkuMDA1LjE2NC4wMDUuMjQ5IDAgMS4wNTItLjI5IDEuNjE0LS44MjkgMS42MTR6bTUuMzI5LjUwMXYtLjU5NUg5LjczVjkuNzcyaC0uNjlsLTEuMTkuNzg2di42ODhsMS4xMzYtLjc0N2guMDV2Mi45MDZoLTEuMThWMTRoM3oiLz4KPC9zdmc+;container=0;" vertex="1" parent="195">
                    <mxGeometry x="34" y="105" width="19" height="19" as="geometry"/>
                </mxCell>
                <mxCell id="176" style="edgeStyle=orthogonalEdgeStyle;rounded=0;html=1;fontSize=9;endArrow=block;endFill=1;" edge="1" parent="227" source="158">
                    <mxGeometry relative="1" as="geometry">
                        <mxPoint x="364" y="94.28999999999996" as="targetPoint"/>
                    </mxGeometry>
                </mxCell>
                <mxCell id="220" value="" style="group" vertex="1" connectable="0" parent="227">
                    <mxGeometry x="189.99919336930475" y="67.54000000000002" width="60" height="70.75" as="geometry"/>
                </mxCell>
                <mxCell id="221" value="" style="shape=image;verticalLabelPosition=bottom;labelBackgroundColor=default;verticalAlign=top;aspect=fixed;imageAspect=0;image=data:image/svg+xml,PHN2ZyB4bWxuczp4bGluaz0iaHR0cDovL3d3dy53My5vcmcvMTk5OS94bGluayIgeG1sbnM9Imh0dHA6Ly93d3cudzMub3JnLzIwMDAvc3ZnIiB2aWV3Qm94PSIwIDAgMzIgMzIiPjxsaW5lYXJHcmFkaWVudCB5Mj0iLTIwMi44NCIgeTE9Ii0yMDIuOTEiIHgyPSItMTMzLjE5OCIgeDE9Ii0xMzMuMjY4IiBncmFkaWVudFVuaXRzPSJ1c2VyU3BhY2VPblVzZSIgZ3JhZGllbnRUcmFuc2Zvcm09Im1hdHJpeCgxODkuMzggMCAwIDE4OS44MSAyNTI0My4wNjEgMzg1MTkuMTcpIiBpZD0iYSI+PHN0b3Agc3RvcC1jb2xvcj0iIzM4N2ViOCIgb2Zmc2V0PSIwIi8+PHN0b3Agc3RvcC1jb2xvcj0iIzM2Njk5NCIgb2Zmc2V0PSIxIi8+PC9saW5lYXJHcmFkaWVudD48bGluZWFyR3JhZGllbnQgeTI9Ii0yMDMuMTMzIiB5MT0iLTIwMy4yMDMiIHgyPSItMTMzLjQ5NSIgeDE9Ii0xMzMuNTc1IiBncmFkaWVudFVuaXRzPSJ1c2VyU3BhY2VPblVzZSIgZ3JhZGllbnRUcmFuc2Zvcm09Im1hdHJpeCgxODkuMzggMCAwIDE4OS44MSAyNTMwOS4wNjEgMzg1ODMuNDIpIiBpZD0iYiI+PHN0b3Agc3RvcC1jb2xvcj0iI2ZmZTA1MiIgb2Zmc2V0PSIwIi8+PHN0b3Agc3RvcC1jb2xvcj0iI2ZmYzMzMSIgb2Zmc2V0PSIxIi8+PC9saW5lYXJHcmFkaWVudD48cGF0aCBmaWxsPSJ1cmwoI2EpIiBkPSJtMTUuODg1IDIuMWMtNy4xIDAtNi42NTEgMy4wNy02LjY1MSAzLjA3djMuMTloNi43NTJ2MWgtOS40NDFzLTQuNTQ1LS41Ni00LjU0NSA2LjY0NSA0LjAxMyA2LjkxMiA0LjAxMyA2LjkxMmgyLjMxN3YtMy4zNjFzLS4xMy00LjAxMyAzLjktNC4wMTNoNi43NjJzMy43NzIuMDYgMy43NzItMy42NTJ2LTYuMDkxcy41NzItMy43MTItNi44NDItMy43MTJ6bS0zLjczMiAyLjEzN2ExLjIxNCAxLjIxNCAwIDEgMSAtMS4xODMgMS4yNDR2LS4wMmExLjIxNCAxLjIxNCAwIDAgMSAxLjIxNC0xLjIxNHoiLz48cGF0aCBmaWxsPSJ1cmwoI2IpIiBkPSJtMTYuMDg1IDI5LjkxYzcuMSAwIDYuNjUxLTMuMDggNi42NTEtMy4wOHYtMy4xOGgtNi43NTF2LTFoOS40N3M0LjU0NS41MDggNC41NDUtNi42NTUtNC4wMTMtNi45MTItNC4wMTMtNi45MTJoLTIuMzQ3djMuMzE3cy4xMyA0LjAxMy0zLjkgNC4wMTNoLTYuNzY1cy0zLjc3NS0uMDU3LTMuNzc1IDMuNjU1djYuMTMycy0uNTcyIDMuNzEyIDYuODQyIDMuNzEyaC4wNHptMy43MzItMi4xNDdhMS4yMTQgMS4yMTQgMCAxIDEgMS4xODMtMS4yNDR2LjAzYTEuMjE0IDEuMjE0IDAgMCAxIC0xLjIxNCAxLjIxNGguMDN6Ii8+PC9zdmc+;container=0;" vertex="1" parent="220">
                    <mxGeometry x="3.2513446442137024" width="53.5" height="53.5" as="geometry"/>
                </mxCell>
                <mxCell id="222" value="Converte CPY&lt;br&gt;pra JSON" style="text;html=1;strokeColor=none;fillColor=none;align=center;verticalAlign=middle;whiteSpace=wrap;rounded=0;fontSize=9;container=0;" vertex="1" parent="220">
                    <mxGeometry y="50.75" width="60" height="20" as="geometry"/>
                </mxCell>
                <mxCell id="223" style="edgeStyle=orthogonalEdgeStyle;rounded=0;html=1;exitX=1;exitY=0.5;exitDx=0;exitDy=0;entryX=0;entryY=0.5;entryDx=0;entryDy=0;fontSize=9;startArrow=none;startFill=0;endArrow=block;endFill=1;" edge="1" parent="227" source="155" target="221">
                    <mxGeometry relative="1" as="geometry"/>
                </mxCell>
                <mxCell id="224" style="edgeStyle=orthogonalEdgeStyle;rounded=0;html=1;exitX=1;exitY=0.5;exitDx=0;exitDy=0;fontSize=9;startArrow=none;startFill=0;endArrow=block;endFill=1;" edge="1" parent="227" source="221" target="158">
                    <mxGeometry relative="1" as="geometry"/>
                </mxCell>
                <mxCell id="226" style="edgeStyle=orthogonalEdgeStyle;rounded=0;html=1;exitX=1;exitY=0.5;exitDx=0;exitDy=0;entryX=0.5;entryY=0;entryDx=0;entryDy=0;fontSize=9;startArrow=none;startFill=0;endArrow=block;endFill=1;" edge="1" parent="227" source="152" target="158">
                    <mxGeometry relative="1" as="geometry"/>
                </mxCell>
                <mxCell id="212" value="" style="group" vertex="1" connectable="0" parent="1">
                    <mxGeometry x="220" y="550" width="525" height="196" as="geometry"/>
                </mxCell>
                <mxCell id="7" value="" style="rounded=0;whiteSpace=wrap;html=1;glass=0;shadow=0;fillColor=default;strokeColor=#F78E04;container=0;strokeWidth=3;" parent="212" vertex="1">
                    <mxGeometry width="525" height="196" as="geometry"/>
                </mxCell>
                <mxCell id="5" value="" style="sketch=0;points=[[0,0,0],[0.25,0,0],[0.5,0,0],[0.75,0,0],[1,0,0],[0,1,0],[0.25,1,0],[0.5,1,0],[0.75,1,0],[1,1,0],[0,0.25,0],[0,0.5,0],[0,0.75,0],[1,0.25,0],[1,0.5,0],[1,0.75,0]];outlineConnect=0;fontColor=#232F3E;gradientColor=#F78E04;gradientDirection=north;fillColor=#D05C17;strokeColor=#ffffff;dashed=0;verticalLabelPosition=bottom;verticalAlign=top;align=center;html=1;fontSize=12;fontStyle=0;aspect=fixed;shape=mxgraph.aws4.resourceIcon;resIcon=mxgraph.aws4.ecs;container=0;" parent="212" vertex="1">
                    <mxGeometry x="491.62845423209615" width="33.37" height="33.37" as="geometry"/>
                </mxCell>
                <mxCell id="70" value="Container ECS" style="text;html=1;strokeColor=none;fillColor=none;align=center;verticalAlign=middle;whiteSpace=wrap;rounded=0;fontSize=9;container=0;" parent="212" vertex="1">
                    <mxGeometry x="435.8308843524163" y="6.680000000000064" width="60.35646804449033" height="20" as="geometry"/>
                </mxCell>
                <mxCell id="83" value="" style="group" parent="212" vertex="1" connectable="0">
                    <mxGeometry x="413.4995617196174" y="68" width="94.40598398815666" height="69" as="geometry"/>
                </mxCell>
                <mxCell id="84" value="" style="sketch=0;points=[[0,0,0],[0.25,0,0],[0.5,0,0],[0.75,0,0],[1,0,0],[0,1,0],[0.25,1,0],[0.5,1,0],[0.75,1,0],[1,1,0],[0,0.25,0],[0,0.5,0],[0,0.75,0],[1,0.25,0],[1,0.5,0],[1,0.75,0]];outlineConnect=0;fontColor=#232F3E;gradientColor=#4D72F3;gradientDirection=north;fillColor=#3334B9;strokeColor=#ffffff;dashed=0;verticalLabelPosition=bottom;verticalAlign=top;align=center;html=1;fontSize=12;fontStyle=0;aspect=fixed;shape=mxgraph.aws4.resourceIcon;resIcon=mxgraph.aws4.command_line_interface;container=0;" parent="83" vertex="1">
                    <mxGeometry x="40.93136109416822" width="49" height="49" as="geometry"/>
                </mxCell>
                <mxCell id="78" value="" style="group" parent="212" vertex="1" connectable="0">
                    <mxGeometry x="106.65999181876617" y="21.67999999999995" width="88.82482420086875" height="73" as="geometry"/>
                </mxCell>
                <mxCell id="24" value="" style="shape=image;verticalLabelPosition=bottom;labelBackgroundColor=default;verticalAlign=top;aspect=fixed;imageAspect=0;image=data:image/svg+xml,PHN2ZyB4bWxucz0iaHR0cDovL3d3dy53My5vcmcvMjAwMC9zdmciIGZpbGw9ImN1cnJlbnRDb2xvciIgY2xhc3M9ImJpIGJpLWZpbGUtZWFybWFyay1iaW5hcnkiIHZpZXdCb3g9IjAgMCAxNiAxNiIgaGVpZ2h0PSIxZW0iIHdpZHRoPSIxZW0iPgogIDxwYXRoIGQ9Ik00IDBoNS41djFINGExIDEgMCAwIDAtMSAxdjEyYTEgMSAwIDAgMCAxIDFoOGExIDEgMCAwIDAgMS0xVjQuNWgxVjE0YTIgMiAwIDAgMS0yIDJINGEyIDIgMCAwIDEtMi0yVjJhMiAyIDAgMCAxIDItMnoiLz4KICA8cGF0aCBkPSJNOS41IDNWMEwxNCA0LjVoLTNBMS41IDEuNSAwIDAgMSA5LjUgM3pNNS41MjYgMTQuMDljLjk3NiAwIDEuNTI0LS43OSAxLjUyNC0yLjIwNSAwLTEuNDEyLS41NDgtMi4yMDMtMS41MjQtMi4yMDMtLjk3OCAwLTEuNTI2Ljc5LTEuNTI2IDIuMjAzIDAgMS40MTUuNTQ4IDIuMjA2IDEuNTI2IDIuMjA2em0tLjgzMi0yLjIwNWMwLTEuMDUuMjktMS42MTIuODMyLTEuNjEyLjM1OCAwIC42MDcuMjQ3LjczMy43MjFMNC43IDEyLjEzN2E2Ljc0OSA2Ljc0OSAwIDAgMS0uMDA2LS4yNTJ6bS44MzIgMS42MTRjLS4zNiAwLS42MDYtLjI0Ni0uNzMyLS43MThsMS41NTYtMS4xNDVjLjAwMy4wNzkuMDA1LjE2NC4wMDUuMjQ5IDAgMS4wNTItLjI5IDEuNjE0LS44MjkgMS42MTR6bTUuMzI5LjUwMXYtLjU5NUg5LjczVjkuNzcyaC0uNjlsLTEuMTkuNzg2di42ODhsMS4xMzYtLjc0N2guMDV2Mi45MDZoLTEuMThWMTRoM3oiLz4KPC9zdmc+;container=0;" parent="78" vertex="1">
                    <mxGeometry x="7.4" width="50" height="50" as="geometry"/>
                </mxCell>
                <mxCell id="38" value="EBCDIC (binário)" style="text;html=1;strokeColor=none;fillColor=none;align=center;verticalAlign=middle;whiteSpace=wrap;rounded=0;fontSize=9;container=0;" parent="78" vertex="1">
                    <mxGeometry x="2.4000000000000057" y="52.31999999999999" width="60" height="20" as="geometry"/>
                </mxCell>
                <mxCell id="77" value="" style="group" parent="212" vertex="1" connectable="0">
                    <mxGeometry x="114.06323567797102" y="119" width="74.0206868340573" height="67.75" as="geometry"/>
                </mxCell>
                <mxCell id="65" value="" style="shape=image;verticalLabelPosition=bottom;labelBackgroundColor=default;verticalAlign=top;aspect=fixed;imageAspect=0;image=data:image/svg+xml,PHN2ZyB4bWxucz0iaHR0cDovL3d3dy53My5vcmcvMjAwMC9zdmciIGZpbGw9ImN1cnJlbnRDb2xvciIgY2xhc3M9ImJpIGJpLWZpbGUtZWFybWFyay10ZXh0IiB2aWV3Qm94PSIwIDAgMTYgMTYiIGhlaWdodD0iMWVtIiB3aWR0aD0iMWVtIj4KICA8cGF0aCBkPSJNNCAwaDUuNXYxSDRhMSAxIDAgMCAwLTEgMXYxMmExIDEgMCAwIDAgMSAxaDhhMSAxIDAgMCAwIDEtMVY0LjVoMVYxNGEyIDIgMCAwIDEtMiAySDRhMiAyIDAgMCAxLTItMlYyYTIgMiAwIDAgMSAyLTJ6Ii8+CiAgPHBhdGggZD0iTTkuNSAzVjBMMTQgNC41aC0zQTEuNSAxLjUgMCAwIDEgOS41IDN6Ii8+CiAgPHBhdGggZD0iTTUgMTEuNWEuNS41IDAgMCAxIC41LS41aDJhLjUuNSAwIDAgMSAwIDFoLTJhLjUuNSAwIDAgMS0uNS0uNXptMC0yYS41LjUgMCAwIDEgLjUtLjVoNWEuNS41IDAgMCAxIDAgMWgtNWEuNS41IDAgMCAxLS41LS41em0wLTJhLjUuNSAwIDAgMSAuNS0uNWg1YS41LjUgMCAwIDEgMCAxaC01YS41LjUgMCAwIDEtLjUtLjV6IiBmaWxsLXJ1bGU9ImV2ZW5vZGQiLz4KPC9zdmc+;container=0;" parent="77" vertex="1">
                    <mxGeometry x="1.6656043162126877" width="47.75" height="47.75" as="geometry"/>
                </mxCell>
                <mxCell id="66" value="Copybook" style="text;html=1;strokeColor=none;fillColor=none;align=center;verticalAlign=middle;whiteSpace=wrap;rounded=0;fontSize=9;container=0;" parent="77" vertex="1">
                    <mxGeometry x="0.54" y="47.75" width="50" height="20" as="geometry"/>
                </mxCell>
                <mxCell id="108" value="" style="group" parent="212" vertex="1" connectable="0">
                    <mxGeometry x="202.74919336930475" y="66.25" width="60" height="70.75" as="geometry"/>
                </mxCell>
                <mxCell id="105" value="" style="shape=image;verticalLabelPosition=bottom;labelBackgroundColor=default;verticalAlign=top;aspect=fixed;imageAspect=0;image=data:image/svg+xml,PHN2ZyB4bWxuczp4bGluaz0iaHR0cDovL3d3dy53My5vcmcvMTk5OS94bGluayIgeG1sbnM9Imh0dHA6Ly93d3cudzMub3JnLzIwMDAvc3ZnIiB2aWV3Qm94PSIwIDAgMzIgMzIiPjxsaW5lYXJHcmFkaWVudCB5Mj0iLTIwMi44NCIgeTE9Ii0yMDIuOTEiIHgyPSItMTMzLjE5OCIgeDE9Ii0xMzMuMjY4IiBncmFkaWVudFVuaXRzPSJ1c2VyU3BhY2VPblVzZSIgZ3JhZGllbnRUcmFuc2Zvcm09Im1hdHJpeCgxODkuMzggMCAwIDE4OS44MSAyNTI0My4wNjEgMzg1MTkuMTcpIiBpZD0iYSI+PHN0b3Agc3RvcC1jb2xvcj0iIzM4N2ViOCIgb2Zmc2V0PSIwIi8+PHN0b3Agc3RvcC1jb2xvcj0iIzM2Njk5NCIgb2Zmc2V0PSIxIi8+PC9saW5lYXJHcmFkaWVudD48bGluZWFyR3JhZGllbnQgeTI9Ii0yMDMuMTMzIiB5MT0iLTIwMy4yMDMiIHgyPSItMTMzLjQ5NSIgeDE9Ii0xMzMuNTc1IiBncmFkaWVudFVuaXRzPSJ1c2VyU3BhY2VPblVzZSIgZ3JhZGllbnRUcmFuc2Zvcm09Im1hdHJpeCgxODkuMzggMCAwIDE4OS44MSAyNTMwOS4wNjEgMzg1ODMuNDIpIiBpZD0iYiI+PHN0b3Agc3RvcC1jb2xvcj0iI2ZmZTA1MiIgb2Zmc2V0PSIwIi8+PHN0b3Agc3RvcC1jb2xvcj0iI2ZmYzMzMSIgb2Zmc2V0PSIxIi8+PC9saW5lYXJHcmFkaWVudD48cGF0aCBmaWxsPSJ1cmwoI2EpIiBkPSJtMTUuODg1IDIuMWMtNy4xIDAtNi42NTEgMy4wNy02LjY1MSAzLjA3djMuMTloNi43NTJ2MWgtOS40NDFzLTQuNTQ1LS41Ni00LjU0NSA2LjY0NSA0LjAxMyA2LjkxMiA0LjAxMyA2LjkxMmgyLjMxN3YtMy4zNjFzLS4xMy00LjAxMyAzLjktNC4wMTNoNi43NjJzMy43NzIuMDYgMy43NzItMy42NTJ2LTYuMDkxcy41NzItMy43MTItNi44NDItMy43MTJ6bS0zLjczMiAyLjEzN2ExLjIxNCAxLjIxNCAwIDEgMSAtMS4xODMgMS4yNDR2LS4wMmExLjIxNCAxLjIxNCAwIDAgMSAxLjIxNC0xLjIxNHoiLz48cGF0aCBmaWxsPSJ1cmwoI2IpIiBkPSJtMTYuMDg1IDI5LjkxYzcuMSAwIDYuNjUxLTMuMDggNi42NTEtMy4wOHYtMy4xOGgtNi43NTF2LTFoOS40N3M0LjU0NS41MDggNC41NDUtNi42NTUtNC4wMTMtNi45MTItNC4wMTMtNi45MTJoLTIuMzQ3djMuMzE3cy4xMyA0LjAxMy0zLjkgNC4wMTNoLTYuNzY1cy0zLjc3NS0uMDU3LTMuNzc1IDMuNjU1djYuMTMycy0uNTcyIDMuNzEyIDYuODQyIDMuNzEyaC4wNHptMy43MzItMi4xNDdhMS4yMTQgMS4yMTQgMCAxIDEgMS4xODMtMS4yNDR2LjAzYTEuMjE0IDEuMjE0IDAgMCAxIC0xLjIxNCAxLjIxNGguMDN6Ii8+PC9zdmc+;container=0;" parent="108" vertex="1">
                    <mxGeometry x="3.2513446442137024" width="53.5" height="53.5" as="geometry"/>
                </mxCell>
                <mxCell id="107" value="Converte CPY&lt;br&gt;pra JSON" style="text;html=1;strokeColor=none;fillColor=none;align=center;verticalAlign=middle;whiteSpace=wrap;rounded=0;fontSize=9;container=0;" parent="108" vertex="1">
                    <mxGeometry y="50.75" width="60" height="20" as="geometry"/>
                </mxCell>
                <mxCell id="109" style="edgeStyle=orthogonalEdgeStyle;rounded=0;html=1;exitX=1;exitY=0.5;exitDx=0;exitDy=0;entryX=0;entryY=0.5;entryDx=0;entryDy=0;fontSize=9;endArrow=block;endFill=1;" parent="212" source="65" target="105" edge="1">
                    <mxGeometry relative="1" as="geometry"/>
                </mxCell>
                <mxCell id="85" value="AWS CLI" style="text;html=1;strokeColor=none;fillColor=none;align=center;verticalAlign=middle;whiteSpace=wrap;rounded=0;fontSize=9;container=0;" parent="212" vertex="1">
                    <mxGeometry x="441.97956171961744" y="117" width="70" height="20" as="geometry"/>
                </mxCell>
                <mxCell id="88" value="" style="html=1;entryX=0;entryY=0.5;entryDx=0;entryDy=0;entryPerimeter=0;endArrow=block;endFill=1;" parent="212" source="112" target="84" edge="1">
                    <mxGeometry relative="1" as="geometry">
                        <mxPoint x="372.794840952919" y="92.19047619047615" as="sourcePoint"/>
                    </mxGeometry>
                </mxCell>
                <mxCell id="115" value="" style="group" parent="212" vertex="1" connectable="0">
                    <mxGeometry x="377" y="66.84000000000003" width="50" height="70.16" as="geometry"/>
                </mxCell>
                <mxCell id="112" value="" style="shape=image;verticalLabelPosition=bottom;labelBackgroundColor=default;verticalAlign=top;aspect=fixed;imageAspect=0;image=data:image/svg+xml,PHN2ZyB4bWxucz0iaHR0cDovL3d3dy53My5vcmcvMjAwMC9zdmciIHdpZHRoPSIyNiIgdmlld0JveD0iMCAwIDI2IDI5IiBoZWlnaHQ9IjI5IiBmaWxsPSJub25lIj48cGF0aCBmaWxsLXJ1bGU9ImV2ZW5vZGQiIGZpbGw9IiMyYTIyMzgiIGQ9Im0yNS41MzM3IDI1LjM1ODUtLjAxMDctMTcuMTI4NDQtNy44NzE1LTcuODcxNTU4aC05LjYyMDgyYy0uMzY3MDcuMDAwMDAyLS42NzgyOS0uMDA1MjctLjk0NTg2LS4wMDk4MDItMS4xODgwNi0uMDIwMTI4LTEuNTE1NTktLjAyNTY3Ni0yLjA1MTA4LjUwOTgxMy0uNTQzNTYuNTQzNTU3LS41MzA3IDEuMjE2MDM3LS41MTAzIDIuMjgyODQ3LjAwNDIyLjIyMDg2LjAwODc3LjQ1ODYxLjAwODc3LjcxNTYxdjE1Ljc0MzEzaDEuNzQ5MjR2LTE1Ljc0MzEzYzAtLjQ2MzkyIDAtMS4yNTY4OS4yNDE1OC0xLjQ5ODQ3LjI1OTU1LS4yNTk1NS45MDA1OC0uMjU0ODcgMS4zNjQxNi0uMjUxNDguMDUwMTQuMDAwMzcuMDk4MjEuMDAwNzIuMTQzNDkuMDAwNzJoOS42MjA4MnY0LjI1MDc4YzAgLjEwNzA4LS4wMDI0LjIwNTA4LS4wMDQ2LjI5NjA0LS4wMTE5LjUwMDE1LS4wMTg4Ljc4NzYxLjM5NzUgMS4yMDM5Ni40OTIxLjQ5MjA3LjgwNDEuNSAxLjUuNWg0LjIyOTR2MTYuODYwMzhjMCAuNDYzOSAwIC43NTk5LS4yNDAxIDEtLjMyOC4zMjgtLjUzNi4zNzgxLTEgLjM3ODFoLTIuMjU4NHYxLjc0OTNsMi4yNTg0LjAxMjJoLjA2NjVjLjkwNS4wMDA0IDEuNzkzMS4wMDA4IDIuNDMzNS0uNjM5Ni41NDc1LS41NDc1LjUyOTUtMS4xNzg4LjUwODUtMS45MTE5LS4wMDQyLS4xNDU1LS4wMDg1LS4yOTQ5LS4wMDg1LS40NDg1em0tMTguNjY3MjggMi4wMTA3Yy0uMTIwOC0uMjQ3OS0uMTg4MzctLjUxODQtLjE5ODM5LS43OTRoMS4zMzgwOGMuMDI0My4xMzY2LjA3NjQzLjI2NjcuMTUzMTYuMzgyMi4wNzY3My4xMTU2LjE3NjQzLjIxNDEuMjkyODcuMjg5NS4xMzI2MS4wOTAzLjI3OTE1LjE1ODMuNDMzNzguMjAxMS4xNjk2Ny4wNDcyLjM1NTA4LjA3LjU1OTcyLjA3LjI4Njg2IDAgLjUyODI0LS4wNDAyLjcyMjM2LS4xMjI1LjE3ODQtLjA2NjYuMzMzNC0uMTg0LjQ0NjEtLjMzNzUuMTAwMS0uMTUuMTUyLS4zMjcuMTQ4Ni0uNTA3My4wMDUyLS4xMDk1LS4wMTYzLS4yMTg1LS4wNjI2LS4zMTc5LS4wNDYzLS4wOTkzLS4xMTYxLS4xODU5LS4yMDMyLS4yNTIzLS4xNzg0LS4xMzk5LS40NDc4LS4yNTE5LS44MDk4OC0uMzM3NmwtMS4wODA5Ni0uMjUxOWMtLjM2MjA3LS4wODA0LS42NzY5MS0uMjA2My0uOTQyNzgtLjM3MjUtLjI2NTg2LS4xNjk3LS40NzIyNi0uMzgxMy0uNjE1NjktLjY0MTktLjE0MzQzLS4yNTg5LS4yMTMzOS0uNTY1LS4yMTMzOS0uOTE2NiAwLS40MjY4LjExMDE5LS43OTkzLjMzMjMzLTEuMTE3Ny4yMjIxNC0uMzE2Ni41MjgyNC0uNTYzMi45MjE3OS0uNzM2NC4zOTM1NS0uMTc0OS44NDQ4My0uMjYyMyAxLjM1NzMyLS4yNjIzLjQ2ODg0LS4wMTM0LjkzNDc2LjA3NzQgMS4zNjQzNi4yNjU4LjM1MTEuMTU1My42NTM1LjQwMzIuODc0NS43MTcyLjIwNjguMjkwOC4zMjguNjMzOC4zNDk4Ljk5aC0xLjMxMThjLS4wMjk5LS4xNjYtLjEwMjItLjMyMTQtLjIwOTktLjQ1MTMtLjExNS0uMTM5NS0uMjYyOC0uMjQ4My0uNDMwMy0uMzE2Ni0uMTgxODgtLjA3ODctLjM5NzAzLS4xMTg5LS42NDcxNS0uMTE4OS0uMzc3ODEgMC0uNjc2OTEuMDg5Mi0uODk1NTUuMjY1OC0uMjE1MTUuMTc1LS4zMjM1OS4zOTg4LS4zMjM1OS42NzE3LS4wMDE2NC4xMDA4LjAyMDI4LjIwMDUuMDY0MDEuMjkxM3MuMTA4MDYuMTcwMi4xODc4Ni4yMzE3Yy4yMDg4MS4xNTU1LjQ1MDYuMjYwOC43MDY2NS4zMDc4bDEuMDg2MTcuMjUxOWMuMzQ2NS4wNzI0LjY4MDIuMTk2Mi45OS4zNjczLjI2OTcuMTQ3MS40OTU5LjM2MjQuNjU2LjYyNDUuMTU1Ni4yNjIzLjIzNDMuNTg3Ny4yMzQzLjk3OTUgMCAuNDMzOC0uMTA4NC44MTY4LS4zMjcgMS4xNDc0LS4yMTUyLjMyODgtLjUzLjU4Ni0uOTQyOC43Njk2LS40MTExLjE4MzctLjkxMTMxLjI3NjQtMS41MDI1Mi4yNzY0LS40NDQyOCAwLS44MzA4My0uMDUyNS0xLjE2MzE3LS4xNTkyLS4zMzA1OC0uMTA0OS0uNjA4NjktLjI1MTktLjgzNjA4LS40NDA4LS4yMTA4Ny0uMTc3Ny0uMzgyMjEtLjM5NzYtLjUwMzAxLS42NDU1em0tNC43NjE4Ni0zLjkwOTJjLS4xMTg5NC4zMDI2LS4xNzg0MS42NzM0LS4xNzg0MSAxLjEwNzJ2LjAwMTguODY1OGMtLjAxMDAxLjM3MzUuMDUwNTIuNzQ1Ni4xNzg0MSAxLjA5NjcuMTAxMTYuMjc2MS4yODM0Ny41MTUxLjUyMjk5LjY4NTYuMjQ5MzMuMTU4OS41NDA1Ny4yMzkzLjgzNjA4LjIzMDkuMjQyNTcuMDA1Ny40ODI5OS0uMDQ2NS43MDE0LS4xNTIyLjE5NDg5LS4xMDA1LjM1OTItLjI1MTUuNDc1NzYtLjQzNzIuMTE5MDktLjE5MTkuMTg5OTEtLjQwOTguMjA2NC0uNjM1aDEuMzM2MzN2LjEzM2MtLjAxNjg1LjQyMjYtLjE1Mzk5LjgzMTUtLjM5NTMgMS4xNzg5LS4yMzc4OC4zMzkzLS41NTk3Mi42MDE3LS45NjIwMi43OTQxLS40MDQwNS4xOTA2LS44NjA1Ny4yODY4LTEuMzczMDYuMjg2OC0uNjI5NjkgMC0xLjE2MTQyLS4xMjU5LTEuNTk4Ny0uMzc5NS0uNDM3MjgtLjI1NTQtLjc3MTM3LS42MjEtMS4wMDA1MDEtMS4wOTUtLjIyNTYzNy0uNDc1Ny0uMzM3NTgyLTEuMDQ0Mi0uMzM3NTgyLTEuNzA3MXYtLjg3MTFjMC0uNjYyOS4xMTU0NDMtMS4yMzMxLjM0MjgyOS0xLjcxMjQuMjMwODg0LS40Nzc1LjU2MzIxNC0uODQ2NiAxLjAwMDUwNC0xLjEwNTQuNDM5MDMtLjI2MDYuOTcwNzYtLjM5MDEgMS41OTM0NS0uMzkwMS4zNjAzMy0uMDAzMi43MTg2NS4wNTQxIDEuMDU5OTcuMTY5Ny4zMTM0NS4xMDEyLjYwNDA0LjI2MjguODU1MzIuNDc1Ny4yNDUyOS4yMDkzLjQ0NDQxLjQ2NzIuNTg0NzIuNzU3NS4xNDAzMi4yOTAyLjIxODc3LjYwNjUuMjMwMzcuOTI4N3YuMTI1OWgtMS4zMzgwOGMtLjAxNjAzLS4yMzU2LS4wODc5OC0uNDY0MS0uMjA5ODktLjY2NjQtLjExNDExLS4xOTIyLS4yNzg2NC0uMzQ5NC0uNDc1NzYtLjQ1NDgtLjIwMTE1LS4xMTM2LS40MzM3OS0uMTY5Ni0uNjk2MTYtLjE2OTYtLjI5NTA5LS4wMDgyLS41ODU0Mi4wNzU1LS44MzA4My4yMzk2LS4yNDA3Ny4xNzU3LS40MjQ0OS40MTg1LS41MjgyNC42OTc5em0xNC4yMzI2NCA1LjAyMThoLTEuNjY2OWwtMi4zNDAzLTYuOTk0OGgxLjYwMzlsMS41NjcyIDUuNDg4OGguMDY2NWwxLjU1MzItNS40ODg4aDEuNTM3NWwtMi4zMjExIDYuOTk2NXoiIGNsaXAtcnVsZT0iZXZlbm9kZCIvPjwvc3ZnPg==;" parent="115" vertex="1">
                    <mxGeometry width="46.91" height="52.32" as="geometry"/>
                </mxCell>
                <mxCell id="36" value="ASCII" style="text;html=1;strokeColor=none;fillColor=none;align=center;verticalAlign=middle;whiteSpace=wrap;rounded=0;fontSize=9;container=0;" parent="115" vertex="1">
                    <mxGeometry y="50.16" width="50" height="20" as="geometry"/>
                </mxCell>
                <mxCell id="81" value="" style="group" parent="212" vertex="1" connectable="0">
                    <mxGeometry x="12.256549467245804" y="68" width="94.40598398815666" height="69" as="geometry"/>
                </mxCell>
                <mxCell id="61" value="" style="sketch=0;points=[[0,0,0],[0.25,0,0],[0.5,0,0],[0.75,0,0],[1,0,0],[0,1,0],[0.25,1,0],[0.5,1,0],[0.75,1,0],[1,1,0],[0,0.25,0],[0,0.5,0],[0,0.75,0],[1,0.25,0],[1,0.5,0],[1,0.75,0]];outlineConnect=0;fontColor=#232F3E;gradientColor=#4D72F3;gradientDirection=north;fillColor=#3334B9;strokeColor=#ffffff;dashed=0;verticalLabelPosition=bottom;verticalAlign=top;align=center;html=1;fontSize=12;fontStyle=0;aspect=fixed;shape=mxgraph.aws4.resourceIcon;resIcon=mxgraph.aws4.command_line_interface;container=0;" parent="81" vertex="1">
                    <mxGeometry x="10.931361094168215" width="49" height="49" as="geometry"/>
                </mxCell>
                <mxCell id="62" value="AWS CLI baixa o arquivo particionado" style="text;html=1;strokeColor=none;fillColor=none;align=center;verticalAlign=middle;whiteSpace=wrap;rounded=0;fontSize=9;container=0;" parent="81" vertex="1">
                    <mxGeometry x="0.43" y="60" width="70" height="20" as="geometry"/>
                </mxCell>
                <mxCell id="202" style="edgeStyle=orthogonalEdgeStyle;rounded=0;html=1;exitX=1;exitY=0.5;exitDx=0;exitDy=0;exitPerimeter=0;entryX=0;entryY=0.5;entryDx=0;entryDy=0;fontSize=9;startArrow=none;startFill=0;endArrow=block;endFill=1;" edge="1" parent="212" source="61" target="24">
                    <mxGeometry relative="1" as="geometry">
                        <Array as="points">
                            <mxPoint x="86" y="93"/>
                            <mxPoint x="86" y="47"/>
                        </Array>
                    </mxGeometry>
                </mxCell>
                <mxCell id="203" style="edgeStyle=orthogonalEdgeStyle;rounded=0;html=1;exitX=1;exitY=0.5;exitDx=0;exitDy=0;exitPerimeter=0;entryX=0;entryY=0.5;entryDx=0;entryDy=0;fontSize=9;startArrow=none;startFill=0;endArrow=block;endFill=1;" edge="1" parent="212" source="61" target="65">
                    <mxGeometry relative="1" as="geometry">
                        <Array as="points">
                            <mxPoint x="86" y="93"/>
                            <mxPoint x="86" y="143"/>
                        </Array>
                    </mxGeometry>
                </mxCell>
                <mxCell id="29" value="" style="shape=image;verticalLabelPosition=bottom;labelBackgroundColor=default;verticalAlign=top;aspect=fixed;imageAspect=0;image=data:image/svg+xml,PHN2ZyB4bWxuczp4bGluaz0iaHR0cDovL3d3dy53My5vcmcvMTk5OS94bGluayIgeG1sbnM9Imh0dHA6Ly93d3cudzMub3JnLzIwMDAvc3ZnIiB2aWV3Qm94PSIwIDAgMzIgMzIiPjxsaW5lYXJHcmFkaWVudCB5Mj0iLTIwMi44NCIgeTE9Ii0yMDIuOTEiIHgyPSItMTMzLjE5OCIgeDE9Ii0xMzMuMjY4IiBncmFkaWVudFVuaXRzPSJ1c2VyU3BhY2VPblVzZSIgZ3JhZGllbnRUcmFuc2Zvcm09Im1hdHJpeCgxODkuMzggMCAwIDE4OS44MSAyNTI0My4wNjEgMzg1MTkuMTcpIiBpZD0iYSI+PHN0b3Agc3RvcC1jb2xvcj0iIzM4N2ViOCIgb2Zmc2V0PSIwIi8+PHN0b3Agc3RvcC1jb2xvcj0iIzM2Njk5NCIgb2Zmc2V0PSIxIi8+PC9saW5lYXJHcmFkaWVudD48bGluZWFyR3JhZGllbnQgeTI9Ii0yMDMuMTMzIiB5MT0iLTIwMy4yMDMiIHgyPSItMTMzLjQ5NSIgeDE9Ii0xMzMuNTc1IiBncmFkaWVudFVuaXRzPSJ1c2VyU3BhY2VPblVzZSIgZ3JhZGllbnRUcmFuc2Zvcm09Im1hdHJpeCgxODkuMzggMCAwIDE4OS44MSAyNTMwOS4wNjEgMzg1ODMuNDIpIiBpZD0iYiI+PHN0b3Agc3RvcC1jb2xvcj0iI2ZmZTA1MiIgb2Zmc2V0PSIwIi8+PHN0b3Agc3RvcC1jb2xvcj0iI2ZmYzMzMSIgb2Zmc2V0PSIxIi8+PC9saW5lYXJHcmFkaWVudD48cGF0aCBmaWxsPSJ1cmwoI2EpIiBkPSJtMTUuODg1IDIuMWMtNy4xIDAtNi42NTEgMy4wNy02LjY1MSAzLjA3djMuMTloNi43NTJ2MWgtOS40NDFzLTQuNTQ1LS41Ni00LjU0NSA2LjY0NSA0LjAxMyA2LjkxMiA0LjAxMyA2LjkxMmgyLjMxN3YtMy4zNjFzLS4xMy00LjAxMyAzLjktNC4wMTNoNi43NjJzMy43NzIuMDYgMy43NzItMy42NTJ2LTYuMDkxcy41NzItMy43MTItNi44NDItMy43MTJ6bS0zLjczMiAyLjEzN2ExLjIxNCAxLjIxNCAwIDEgMSAtMS4xODMgMS4yNDR2LS4wMmExLjIxNCAxLjIxNCAwIDAgMSAxLjIxNC0xLjIxNHoiLz48cGF0aCBmaWxsPSJ1cmwoI2IpIiBkPSJtMTYuMDg1IDI5LjkxYzcuMSAwIDYuNjUxLTMuMDggNi42NTEtMy4wOHYtMy4xOGgtNi43NTF2LTFoOS40N3M0LjU0NS41MDggNC41NDUtNi42NTUtNC4wMTMtNi45MTItNC4wMTMtNi45MTJoLTIuMzQ3djMuMzE3cy4xMyA0LjAxMy0zLjkgNC4wMTNoLTYuNzY1cy0zLjc3NS0uMDU3LTMuNzc1IDMuNjU1djYuMTMycy0uNTcyIDMuNzEyIDYuODQyIDMuNzEyaC4wNHptMy43MzItMi4xNDdhMS4yMTQgMS4yMTQgMCAxIDEgMS4xODMtMS4yNDR2LjAzYTEuMjE0IDEuMjE0IDAgMCAxIC0xLjIxNCAxLjIxNGguMDN6Ii8+PC9zdmc+;container=0;" parent="212" vertex="1">
                    <mxGeometry x="289.7405380135185" y="66" width="53.5" height="53.5" as="geometry"/>
                </mxCell>
                <mxCell id="104" style="edgeStyle=orthogonalEdgeStyle;rounded=0;html=1;exitX=1;exitY=0.5;exitDx=0;exitDy=0;entryX=0.5;entryY=0;entryDx=0;entryDy=0;fontSize=9;endArrow=block;endFill=1;" parent="212" source="24" target="29" edge="1">
                    <mxGeometry relative="1" as="geometry"/>
                </mxCell>
                <mxCell id="51" value="Converte EBCDIC para ASCII" style="text;html=1;strokeColor=none;fillColor=none;align=center;verticalAlign=middle;whiteSpace=wrap;rounded=0;fontSize=9;container=0;" parent="212" vertex="1">
                    <mxGeometry x="284.9291933693048" y="123" width="60" height="20" as="geometry"/>
                </mxCell>
                <mxCell id="106" style="edgeStyle=orthogonalEdgeStyle;rounded=0;html=1;entryX=0;entryY=0.5;entryDx=0;entryDy=0;fontSize=9;endArrow=block;endFill=1;" parent="212" source="105" target="29" edge="1">
                    <mxGeometry relative="1" as="geometry"/>
                </mxCell>
                <mxCell id="33" style="html=1;exitX=1;exitY=0.5;exitDx=0;exitDy=0;endArrow=block;endFill=1;" parent="212" source="29" target="112" edge="1">
                    <mxGeometry relative="1" as="geometry">
                        <mxPoint x="325.044840952919" y="92.19047619047615" as="targetPoint"/>
                    </mxGeometry>
                </mxCell>
                <mxCell id="209" value="" style="group" vertex="1" connectable="0" parent="1">
                    <mxGeometry x="-150" y="310" width="118" height="339" as="geometry"/>
                </mxCell>
                <mxCell id="117" value="" style="rounded=0;whiteSpace=wrap;html=1;strokeWidth=3;strokeColor=#60A337;" vertex="1" parent="209">
                    <mxGeometry y="13.169999999999987" width="118" height="325.83" as="geometry"/>
                </mxCell>
                <mxCell id="132" value="" style="rounded=0;whiteSpace=wrap;html=1;strokeWidth=3;strokeColor=#60A337;" vertex="1" parent="209">
                    <mxGeometry x="18" y="57.5" width="80" height="186.5" as="geometry"/>
                </mxCell>
                <mxCell id="127" value="" style="group" vertex="1" connectable="0" parent="209">
                    <mxGeometry x="25.99919336930475" y="254" width="60" height="71" as="geometry"/>
                </mxCell>
                <mxCell id="120" value="" style="sketch=0;pointerEvents=1;shadow=0;dashed=0;html=1;strokeColor=none;labelPosition=center;verticalLabelPosition=bottom;verticalAlign=top;outlineConnect=0;align=center;shape=mxgraph.office.concepts.folder;fillColor=#7FBA42;strokeWidth=3;" vertex="1" parent="127">
                    <mxGeometry x="5.000806630695251" width="50" height="45" as="geometry"/>
                </mxCell>
                <mxCell id="123" value="Arquivos Convertidos" style="text;html=1;strokeColor=none;fillColor=none;align=center;verticalAlign=middle;whiteSpace=wrap;rounded=0;fontSize=9;container=0;" vertex="1" parent="127">
                    <mxGeometry y="51" width="60" height="20" as="geometry"/>
                </mxCell>
                <mxCell id="126" value="" style="group" vertex="1" connectable="0" parent="209">
                    <mxGeometry x="25.99919336930475" y="164" width="60" height="71" as="geometry"/>
                </mxCell>
                <mxCell id="118" value="" style="sketch=0;pointerEvents=1;shadow=0;dashed=0;html=1;strokeColor=none;labelPosition=center;verticalLabelPosition=bottom;verticalAlign=top;outlineConnect=0;align=center;shape=mxgraph.office.concepts.folder;fillColor=#7FBA42;strokeWidth=3;" vertex="1" parent="126">
                    <mxGeometry x="5.000806630695251" width="50" height="45" as="geometry"/>
                </mxCell>
                <mxCell id="122" value="Arquivos Particionados" style="text;html=1;strokeColor=none;fillColor=none;align=center;verticalAlign=middle;whiteSpace=wrap;rounded=0;fontSize=9;container=0;" vertex="1" parent="126">
                    <mxGeometry y="51" width="60" height="20" as="geometry"/>
                </mxCell>
                <mxCell id="91" value="" style="group" parent="209" vertex="1" connectable="0">
                    <mxGeometry x="79" width="34" height="41.50000000000007" as="geometry"/>
                </mxCell>
                <mxCell id="2" value="" style="sketch=0;points=[[0,0,0],[0.25,0,0],[0.5,0,0],[0.75,0,0],[1,0,0],[0,1,0],[0.25,1,0],[0.5,1,0],[0.75,1,0],[1,1,0],[0,0.25,0],[0,0.5,0],[0,0.75,0],[1,0.25,0],[1,0.5,0],[1,0.75,0]];outlineConnect=0;fontColor=#232F3E;gradientColor=#60A337;gradientDirection=north;fillColor=#277116;strokeColor=#ffffff;dashed=0;verticalLabelPosition=bottom;verticalAlign=top;align=center;html=1;fontSize=12;fontStyle=0;aspect=fixed;shape=mxgraph.aws4.resourceIcon;resIcon=mxgraph.aws4.s3;container=0;" parent="91" vertex="1">
                    <mxGeometry x="3.5" y="14.000000000000002" width="34.99677449083034" height="34.99677449083034" as="geometry"/>
                </mxCell>
                <mxCell id="119" value="" style="sketch=0;pointerEvents=1;shadow=0;dashed=0;html=1;strokeColor=none;labelPosition=center;verticalLabelPosition=bottom;verticalAlign=top;outlineConnect=0;align=center;shape=mxgraph.office.concepts.folder;fillColor=#7FBA42;strokeWidth=3;" vertex="1" parent="209">
                    <mxGeometry x="31" y="76" width="50" height="45" as="geometry"/>
                </mxCell>
                <mxCell id="121" value="Arquivos Brutos" style="text;html=1;strokeColor=none;fillColor=none;align=center;verticalAlign=middle;whiteSpace=wrap;rounded=0;fontSize=9;container=0;" vertex="1" parent="209">
                    <mxGeometry x="25.99919336930475" y="127" width="60" height="20" as="geometry"/>
                </mxCell>
                <mxCell id="138" value="Bucket&lt;br&gt;S3" style="text;html=1;strokeColor=none;fillColor=none;align=center;verticalAlign=middle;whiteSpace=wrap;rounded=0;fontSize=9;container=0;" vertex="1" parent="209">
                    <mxGeometry x="18.640884352416265" y="21.500000000000057" width="60.35646804449033" height="20" as="geometry"/>
                </mxCell>
                <mxCell id="143" value="" style="group" vertex="1" connectable="0" parent="209">
                    <mxGeometry x="86" y="139.25" width="21.4" height="23" as="geometry"/>
                </mxCell>
                <mxCell id="142" value="" style="rounded=0;whiteSpace=wrap;html=1;strokeColor=none;strokeWidth=3;fontSize=8;fillColor=default;gradientColor=none;" vertex="1" parent="143">
                    <mxGeometry x="0.8024999999999999" width="19.794999999999998" height="22.999999999999996" as="geometry"/>
                </mxCell>
                <mxCell id="124" value="" style="sketch=0;outlineConnect=0;fontColor=#232F3E;gradientColor=none;fillColor=#B0084D;strokeColor=none;dashed=0;verticalLabelPosition=bottom;verticalAlign=top;align=center;html=1;fontSize=12;fontStyle=0;aspect=fixed;pointerEvents=1;shape=mxgraph.aws4.event;strokeWidth=3;" vertex="1" parent="143">
                    <mxGeometry y="1.6046511627906974" width="21.3953488372093" height="21.3953488372093" as="geometry"/>
                </mxCell>
                <mxCell id="4" style="html=1;entryX=0;entryY=0.5;entryDx=0;entryDy=0;entryPerimeter=0;endArrow=block;endFill=1;strokeWidth=1;jumpStyle=none;strokeColor=#404040;edgeStyle=entityRelationEdgeStyle;rounded=0;" parent="1" source="124" target="3" edge="1">
                    <mxGeometry relative="1" as="geometry">
                        <mxPoint x="688" y="450" as="sourcePoint"/>
                    </mxGeometry>
                </mxCell>
                <mxCell id="47" value="Evento dispara&lt;br&gt;quando um arquivo&lt;br&gt;novo é criado" style="edgeLabel;html=1;align=center;verticalAlign=middle;resizable=0;points=[];fontSize=11;container=0;" parent="4" vertex="1" connectable="0">
                    <mxGeometry x="-0.2293" y="1" relative="1" as="geometry">
                        <mxPoint x="22" y="6" as="offset"/>
                    </mxGeometry>
                </mxCell>
                <mxCell id="197" style="edgeStyle=orthogonalEdgeStyle;rounded=0;html=1;fontSize=8;startArrow=none;startFill=0;endArrow=block;endFill=1;entryX=0;entryY=0.5;entryDx=0;entryDy=0;" edge="1" parent="1" source="3" target="146">
                    <mxGeometry relative="1" as="geometry">
                        <mxPoint x="430" y="420" as="targetPoint"/>
                        <Array as="points">
                            <mxPoint x="165" y="328"/>
                        </Array>
                    </mxGeometry>
                </mxCell>
                <mxCell id="198" value="Arquivos brutos&lt;br&gt;são particionados" style="edgeLabel;html=1;align=center;verticalAlign=middle;resizable=0;points=[];fontSize=11;" vertex="1" connectable="0" parent="197">
                    <mxGeometry x="-0.375" relative="1" as="geometry">
                        <mxPoint y="33" as="offset"/>
                    </mxGeometry>
                </mxCell>
                <mxCell id="3" value="" style="sketch=0;points=[[0,0,0],[0.25,0,0],[0.5,0,0],[0.75,0,0],[1,0,0],[0,1,0],[0.25,1,0],[0.5,1,0],[0.75,1,0],[1,1,0],[0,0.25,0],[0,0.5,0],[0,0.75,0],[1,0.25,0],[1,0.5,0],[1,0.75,0]];outlineConnect=0;fontColor=#232F3E;gradientColor=#F78E04;gradientDirection=north;fillColor=#D05C17;strokeColor=#ffffff;dashed=0;verticalLabelPosition=bottom;verticalAlign=top;align=center;html=1;fontSize=12;fontStyle=0;aspect=fixed;shape=mxgraph.aws4.resourceIcon;resIcon=mxgraph.aws4.lambda;container=0;" parent="1" vertex="1">
                    <mxGeometry x="140" y="460" width="50" height="50" as="geometry"/>
                </mxCell>
                <mxCell id="94" value="" style="edgeStyle=entityRelationEdgeStyle;html=1;endArrow=block;elbow=vertical;startArrow=none;endFill=1;strokeColor=#545B64;rounded=0;strokeWidth=1;jumpStyle=none;exitX=0.5;exitY=0.5;exitDx=0;exitDy=0;exitPerimeter=0;" parent="1" source="97" target="119" edge="1">
                    <mxGeometry width="100" relative="1" as="geometry">
                        <mxPoint x="68" y="155" as="sourcePoint"/>
                        <mxPoint x="148" y="154.58" as="targetPoint"/>
                    </mxGeometry>
                </mxCell>
                <mxCell id="98" value="Faz o upload do&lt;br&gt;arquivo EBCDIC" style="edgeLabel;html=1;align=center;verticalAlign=middle;resizable=0;points=[];" parent="94" vertex="1" connectable="0">
                    <mxGeometry x="0.1404" relative="1" as="geometry">
                        <mxPoint x="24" y="-16" as="offset"/>
                    </mxGeometry>
                </mxCell>
                <mxCell id="97" value="Usuário" style="shape=umlActor;verticalLabelPosition=bottom;verticalAlign=top;html=1;outlineConnect=0;rounded=0;labelBackgroundColor=#FFFFFF;strokeColor=#000000;strokeWidth=2;fillColor=default;gradientColor=none;" parent="1" vertex="1">
                    <mxGeometry x="90" y="298" width="30" height="60" as="geometry"/>
                </mxCell>
                <mxCell id="110" style="html=1;exitX=0.5;exitY=1;exitDx=0;exitDy=0;exitPerimeter=0;endArrow=block;endFill=1;strokeWidth=1;jumpStyle=none;strokeColor=#404040;rounded=0;entryX=0;entryY=0.5;entryDx=0;entryDy=0;edgeStyle=orthogonalEdgeStyle;" parent="1" source="3" target="7" edge="1">
                    <mxGeometry relative="1" as="geometry">
                        <mxPoint x="430" y="600" as="targetPoint"/>
                    </mxGeometry>
                </mxCell>
                <mxCell id="111" value="Arquivos particionados&lt;br&gt;são convertidos" style="edgeLabel;html=1;align=center;verticalAlign=middle;resizable=0;points=[];fontSize=11;container=0;" parent="110" vertex="1" connectable="0">
                    <mxGeometry x="-0.2878" y="1" relative="1" as="geometry">
                        <mxPoint x="-1" y="-48" as="offset"/>
                    </mxGeometry>
                </mxCell>
                <mxCell id="215" style="edgeStyle=orthogonalEdgeStyle;rounded=0;html=1;exitX=1;exitY=0.5;exitDx=0;exitDy=0;exitPerimeter=0;fontSize=9;startArrow=none;startFill=0;endArrow=block;endFill=1;" edge="1" parent="1" source="150" target="118">
                    <mxGeometry relative="1" as="geometry">
                        <Array as="points">
                            <mxPoint x="770" y="326"/>
                            <mxPoint x="770" y="150"/>
                            <mxPoint x="-170" y="150"/>
                            <mxPoint x="-170" y="497"/>
                        </Array>
                    </mxGeometry>
                </mxCell>
                <mxCell id="216" style="edgeStyle=orthogonalEdgeStyle;rounded=0;html=1;exitX=1;exitY=0.5;exitDx=0;exitDy=0;exitPerimeter=0;fontSize=9;startArrow=none;startFill=0;endArrow=block;endFill=1;" edge="1" parent="1" source="84" target="120">
                    <mxGeometry relative="1" as="geometry">
                        <Array as="points">
                            <mxPoint x="770" y="643"/>
                            <mxPoint x="770" y="770"/>
                            <mxPoint x="-170" y="770"/>
                            <mxPoint x="-170" y="587"/>
                        </Array>
                    </mxGeometry>
                </mxCell>
            </root>
        </mxGraphModel>
    </diagram>
</mxfile>